<svg width="160" height="169" viewBox="0 0 160 169" fill="none" xmlns="http://www.w3.org/2000/svg">
<path d="M27.2501 68.3602C26.1301 67.8502 24.81 67.7002 23.3 67.9102C21.79 68.1202 20.4701 68.6402 19.3501 69.4702C18.2301 70.2902 17.3601 71.3602 16.7501 72.6802C16.1401 74.0002 15.8301 75.4902 15.8201 77.1502C15.8201 78.8202 16.1201 80.2302 16.7201 81.3902C17.3201 82.5502 18.1901 83.3902 19.3101 83.8902C20.4301 84.4002 21.7601 84.5502 23.2701 84.3402C24.7901 84.1302 26.1001 83.6102 27.2301 82.7802C28.3501 81.9602 29.2101 80.8802 29.8101 79.5502C30.4101 78.2202 30.7101 76.7202 30.7101 75.0602C30.7101 73.4002 30.4201 71.9902 29.8201 70.8402C29.2301 69.7002 28.3701 68.8702 27.2501 68.3602ZM25.9001 79.4702C25.2701 80.4202 24.3901 80.9702 23.2801 81.1202C22.1701 81.2802 21.3001 80.9702 20.6801 80.2102C20.0601 79.4502 19.7501 78.2402 19.7501 76.5902C19.7501 74.9502 20.0701 73.6702 20.7001 72.7502C21.3301 71.8202 22.2001 71.2802 23.3101 71.1202C24.4201 70.9602 25.3001 71.2702 25.9301 72.0202C26.5601 72.7802 26.8701 73.9702 26.8701 75.5902C26.8501 77.2402 26.5301 78.5302 25.9001 79.4702Z" fill="#DEDEDE"/>
<path d="M44.4101 75.0701C44.0801 74.7901 43.7001 74.6301 43.2901 74.6001C44.2601 74.1301 45.0201 73.4701 45.5601 72.6001C46.1001 71.7401 46.3601 70.7701 46.3701 69.6901C46.3701 68.1401 45.9201 67.0201 45.0201 66.3101C44.1201 65.6101 42.7701 65.3801 40.9801 65.6301L34.0801 66.6001L34.05 82.6301L37.9101 82.0901L37.9201 75.8501L39.3401 75.6501C40.1601 75.5301 40.6801 75.7601 40.9001 76.3301L42.8101 81.3901L46.9601 80.8101L45.2201 76.2801C45.0101 75.7601 44.7401 75.3601 44.4101 75.0701ZM42.1401 71.6901C41.7601 72.0201 41.1601 72.25 40.3301 72.36L37.8701 72.7101L37.8801 69.2701L40.3401 68.92C41.1901 68.8 41.8001 68.8501 42.1601 69.0701C42.5301 69.2901 42.7101 69.7101 42.7101 70.3201C42.7101 70.9001 42.5201 71.3601 42.1401 71.6901Z" fill="#DEDEDE"/>
<path d="M56.9401 73.2199L59.5201 72.8598L59.5101 75.8299C58.8601 76.0699 58.2 76.2399 57.55 76.3299C56.15 76.5299 55.1101 76.2599 54.4401 75.5299C53.7701 74.7999 53.4301 73.5799 53.4301 71.8699C53.4301 70.2199 53.7601 68.9498 54.4101 68.0498C55.0601 67.1598 56.0401 66.6199 57.3601 66.4299C58.0801 66.3299 58.7601 66.3399 59.3901 66.4699C60.0201 66.5999 60.6801 66.8599 61.3601 67.2399L62.6001 64.0699C62.0001 63.6299 61.2301 63.3299 60.2801 63.1599C59.3301 62.9899 58.3201 62.9799 57.2501 63.1399C55.6901 63.3599 54.3301 63.8799 53.1601 64.7199C51.9901 65.5499 51.0901 66.6299 50.4401 67.9599C49.8001 69.2899 49.4801 70.7799 49.4701 72.4299C49.4701 74.1299 49.7801 75.5499 50.4201 76.6999C51.0601 77.8499 51.9701 78.6699 53.1601 79.1599C54.3501 79.6499 55.7501 79.7899 57.3601 79.5599C58.3901 79.4199 59.3901 79.1699 60.3701 78.8199C61.3501 78.4699 62.2401 78.0498 63.0301 77.5498L63.0401 69.5099L56.9301 70.3699L56.9401 73.2199Z" fill="#DEDEDE"/>
<path d="M71.73 61.3101L64.76 78.3101L68.68 77.7601L70 74.2701L76.59 73.3401L77.9 76.4601L81.76 75.9201L74.82 60.8701L71.73 61.3101ZM71.27 70.9201L73.3 65.5701L75.31 70.3502L71.27 70.9201Z" fill="#DEDEDE"/>
<path d="M87.3101 66.0497L94.0302 74.1998L96.9301 73.7898L96.9601 57.7598L93.2701 58.2798L93.2501 67.3298L86.5302 59.2297L83.6801 59.6298L83.6501 75.6598L87.3001 75.1398L87.3101 66.0497Z" fill="#DEDEDE"/>
<path d="M104.61 56.6899L100.69 57.2399L100.66 73.27L104.58 72.72L104.61 56.6899Z" fill="#DEDEDE"/>
<path d="M120.54 68.9199L119.36 66.09C118.15 67.2 116.9 67.85 115.6 68.04C114.4 68.21 113.49 67.92 112.85 67.19C112.21 66.45 111.89 65.28 111.9 63.66C111.9 62.05 112.22 60.8 112.87 59.89C113.51 58.98 114.43 58.44 115.62 58.28C116.91 58.1 118.16 58.3999 119.37 59.1699L120.57 56.01C120.02 55.55 119.28 55.22 118.37 55.03C117.46 54.85 116.52 54.82 115.54 54.96C114 55.18 112.65 55.71 111.5 56.55C110.35 57.39 109.47 58.48 108.85 59.8C108.23 61.13 107.92 62.6 107.91 64.22C107.91 65.86 108.22 67.25 108.83 68.41C109.45 69.57 110.33 70.41 111.47 70.93C112.61 71.45 113.96 71.6 115.5 71.39C116.47 71.25 117.42 70.96 118.33 70.52C119.25 70.07 119.98 69.5399 120.54 68.9199Z" fill="#DEDEDE"/>
<path d="M45.07 88.6097C44.14 87.8597 42.83 87.6097 41.13 87.8497L34.06 88.8397L34.03 104.87L37.95 104.32L37.96 98.0597L41.11 97.6197C42.78 97.3897 44.09 96.7597 45.03 95.7397C45.98 94.7197 46.45 93.4697 46.45 91.9797C46.47 90.4797 46 89.3597 45.07 88.6097ZM40.6 94.5397L37.97 94.9097L37.98 91.4897L40.61 91.1197C41.37 91.0097 41.93 91.0797 42.29 91.3297C42.64 91.5697 42.82 91.9797 42.82 92.5497C42.81 93.6597 42.08 94.3297 40.6 94.5397Z" fill="#DEDEDE"/>
<path d="M59.7401 95.1597C59.4101 94.8797 59.0301 94.7197 58.6201 94.6897C59.5901 94.2197 60.3501 93.5597 60.8901 92.6897C61.4301 91.8297 61.7001 90.8597 61.7001 89.7697C61.7001 88.2297 61.2502 87.0997 60.3502 86.3897C59.4502 85.6797 58.1001 85.4597 56.3101 85.7097L49.4102 86.6797L49.3801 102.71L53.2401 102.17L53.2501 95.9297L54.6702 95.7297C55.4902 95.6097 56.0102 95.8397 56.2302 96.4097L58.1401 101.48L62.2902 100.9L60.5501 96.3697C60.3401 95.8397 60.0701 95.4397 59.7401 95.1597ZM57.4702 91.7697C57.0902 92.0997 56.4901 92.3197 55.6501 92.4397L53.1901 92.7897L53.2001 89.3497L55.6602 88.9997C56.5102 88.8797 57.1202 88.9297 57.4802 89.1497C57.8502 89.3697 58.0302 89.7897 58.0302 90.3997C58.0402 90.9897 57.8502 91.4397 57.4702 91.7697Z" fill="#DEDEDE"/>
<path d="M76.2401 83.7099C75.1201 83.1999 73.8101 83.0498 72.2901 83.2598C70.7701 83.4698 69.4601 83.9898 68.3301 84.8198C67.2101 85.6398 66.3401 86.7099 65.7301 88.0299C65.1101 89.3499 64.81 90.8398 64.8 92.4998C64.8 94.1698 65.1001 95.5798 65.7001 96.7398C66.3001 97.8998 67.1701 98.7398 68.2901 99.2398C69.4101 99.7498 70.7401 99.8998 72.2501 99.6898C73.7701 99.4798 75.0801 98.9598 76.2001 98.1298C77.3201 97.3098 78.1801 96.2299 78.7801 94.8999C79.3801 93.5699 79.6801 92.0699 79.6901 90.4099C79.6901 88.7499 79.4 87.3398 78.8 86.1898C78.22 85.0498 77.3601 84.2199 76.2401 83.7099ZM74.8901 94.8298C74.2501 95.7798 73.3801 96.3298 72.2701 96.4798C71.1601 96.6398 70.2901 96.3298 69.6701 95.5698C69.0401 94.8098 68.7401 93.5998 68.7401 91.9498C68.7401 90.3098 69.0601 89.0298 69.6901 88.1098C70.3201 87.1798 71.19 86.6398 72.3 86.4798C73.41 86.3198 74.2801 86.6298 74.9201 87.3798C75.5501 88.1398 75.8601 89.3298 75.8601 90.9498C75.8401 92.5898 75.5201 93.8798 74.8901 94.8298Z" fill="#DEDEDE"/>
<path d="M93.36 81.4602C92.17 80.9902 90.76 80.8702 89.12 81.1002L83.05 81.9502L83.02 97.9801L89.09 97.1301C90.74 96.9001 92.16 96.3801 93.36 95.5701C94.55 94.7601 95.46 93.7101 96.09 92.4201C96.72 91.1201 97.03 89.6401 97.04 87.9801C97.04 86.3301 96.73 84.9502 96.1 83.8402C95.46 82.7202 94.55 81.9302 93.36 81.4602ZM92.07 92.1801C91.35 93.0501 90.27 93.5902 88.82 93.7902L86.94 94.0501L86.96 84.7802L88.84 84.5202C91.72 84.1202 93.15 85.4502 93.15 88.5302C93.15 90.0902 92.79 91.3001 92.07 92.1801Z" fill="#DEDEDE"/>
<path d="M109.62 87.65C109.62 88.79 109.38 89.71 108.9 90.39C108.43 91.08 107.75 91.4899 106.88 91.6099C105.99 91.7399 105.31 91.5199 104.83 90.9799C104.35 90.4299 104.12 89.5799 104.12 88.4199L104.14 78.9899L100.32 79.53L100.3 88.7999C100.3 91.0799 100.85 92.7299 101.96 93.7599C103.07 94.7799 104.71 95.14 106.88 94.83C109.01 94.53 110.64 93.7 111.77 92.35C112.91 91 113.48 89.1999 113.48 86.9399L113.5 77.6699L109.64 78.21L109.62 87.65Z" fill="#DEDEDE"/>
<path d="M124.4 79.2699C125.69 79.0899 126.94 79.38 128.15 80.16L129.35 76.9999C128.8 76.5399 128.06 76.2099 127.15 76.0199C126.24 75.8299 125.3 75.8099 124.32 75.9499C122.78 76.1699 121.43 76.7 120.28 77.54C119.13 78.39 118.25 79.47 117.63 80.79C117.01 82.12 116.7 83.5899 116.69 85.2099C116.69 86.8499 117 88.24 117.61 89.4C118.23 90.5599 119.11 91.3999 120.25 91.9199C121.4 92.4399 122.74 92.5999 124.28 92.3799C125.25 92.2399 126.2 91.9499 127.11 91.5099C128.02 91.0699 128.76 90.5399 129.31 89.9199L128.13 87.09C126.92 88.2 125.67 88.85 124.37 89.04C123.17 89.21 122.26 88.9199 121.62 88.1899C120.98 87.4499 120.66 86.28 120.67 84.66C120.67 83.05 120.99 81.7999 121.64 80.8899C122.29 79.9799 123.2 79.4399 124.4 79.2699Z" fill="#DEDEDE"/>
<path d="M131.14 75.1999V78.6199L135.56 77.9999L135.53 90.5999L139.49 90.0499L139.52 77.4399L143.94 76.8199L143.95 73.3999L131.14 75.1999Z" fill="#DEDEDE"/>
<path d="M81.1 150C83.35 145.11 87.67 141.35 92.55 139.07C97.43 136.79 102.85 135.89 108.23 135.64C107.88 142.18 107.47 148.97 104.3 154.7C101.54 159.68 91.86 168.11 85.61 167.66C85.42 167.65 85.23 167.62 85.05 167.59C87.5 161.77 91.18 156.48 95.81 152.17C96.46 151.57 96.5 150.55 95.89 149.9C95.29 149.25 94.27 149.21 93.62 149.82C88.71 154.39 84.79 159.99 82.17 166.16C78.51 162.62 79.35 153.8 81.1 150Z" fill="#DEDEDE"/>
<path d="M70.25 144.01C74.15 148.36 79.22 160.3 76.89 165.84C76.62 166.48 76.26 167.01 75.84 167.44C70.11 162.23 65.71 155.47 63.32 148.12C63.04 147.28 62.14 146.81 61.29 147.09C60.45 147.36 59.98 148.27 60.26 149.12C62.69 156.57 67.04 163.46 72.71 168.91C68.1 169.55 61.42 166.12 58.69 163.47C54.72 159.62 52.46 154.29 51.78 149C51.1 143.71 51.89 138.42 53.3 133.42C59.42 136.13 65.77 139.01 70.25 144.01Z" fill="#DEDEDE"/>
<path d="M124.29 145.64C123.36 145.64 122.45 145.2 121.87 144.39C120.92 143.05 121.24 141.2 122.58 140.26C132.04 133.56 139.9 124.62 145.3 114.39C150.88 103.83 153.83 91.9 153.83 79.87C153.83 60.12 146.14 41.55 132.17 27.58C118.2 13.61 99.63 5.91998 79.88 5.91998C60.13 5.91998 41.56 13.61 27.59 27.58C13.62 41.55 5.92999 60.12 5.92999 79.87C5.92999 91.9 8.88002 103.83 14.46 114.39C19.87 124.61 27.72 133.56 37.18 140.26C38.52 141.21 38.83 143.06 37.89 144.39C36.94 145.73 35.09 146.04 33.76 145.1C23.55 137.87 15.06 128.21 9.22003 117.17C3.19003 105.76 0 92.87 0 79.88C0 58.54 8.31002 38.48 23.4 23.4C38.49 8.31002 58.55 0 79.88 0C101.22 0 121.28 8.31002 136.36 23.4C151.45 38.49 159.76 58.55 159.76 79.88C159.76 92.87 156.57 105.76 150.54 117.17C144.7 128.21 136.22 137.87 126 145.1C125.49 145.46 124.89 145.64 124.29 145.64Z" fill="#DEDEDE"/>
<path d="M119.62 38.7901C120.35 38.6901 120.94 39.24 120.94 40.03C120.94 40.82 120.35 41.54 119.62 41.64L35.36 53.48C34.63 53.58 34.04 53.03 34.04 52.24C34.04 51.45 34.63 50.73 35.36 50.63L119.62 38.7901Z" fill="#DEDEDE"/>
<path d="M119.62 104.11C120.35 104.01 120.94 104.56 120.94 105.35C120.94 106.14 120.35 106.86 119.62 106.96L35.36 118.8C34.63 118.9 34.04 118.35 34.04 117.56C34.04 116.77 34.63 116.05 35.36 115.95L119.62 104.11Z" fill="#DEDEDE"/>
</svg>
