<svg width="213" height="167" viewBox="0 0 213 167" fill="none" xmlns="http://www.w3.org/2000/svg">
<path d="M104.24 153.59C104.228 153.59 104.216 153.59 104.205 153.59C102.663 153.542 101.097 153.435 99.5671 153.281C99.0374 153.234 98.6608 152.759 98.7078 152.225C98.7549 151.691 99.2257 151.311 99.7554 151.359C101.25 151.513 102.757 151.608 104.264 151.655C104.793 151.667 105.205 152.118 105.182 152.652C105.17 153.186 104.746 153.59 104.24 153.59ZM108.819 153.59C108.313 153.59 107.889 153.174 107.865 152.664C107.854 152.13 108.266 151.691 108.783 151.667C110.29 151.62 111.797 151.513 113.292 151.37C113.821 151.311 114.28 151.703 114.339 152.237C114.386 152.759 114.01 153.234 113.48 153.293C111.95 153.447 110.384 153.554 108.842 153.602C108.842 153.59 108.831 153.59 108.819 153.59ZM95.1178 152.688C95.0707 152.688 95.0119 152.688 94.9648 152.676C93.4464 152.415 91.9162 152.106 90.4096 151.75C89.8917 151.632 89.5857 151.109 89.7034 150.599C89.8211 150.077 90.339 149.756 90.8451 149.887C92.3047 150.231 93.7995 150.54 95.2708 150.789C95.7887 150.872 96.1419 151.37 96.0595 151.893C95.9771 152.355 95.5768 152.688 95.1178 152.688ZM117.929 152.676C117.47 152.676 117.07 152.344 116.988 151.869C116.905 151.347 117.246 150.848 117.764 150.765C119.247 150.516 120.731 150.207 122.19 149.863C122.708 149.745 123.214 150.065 123.344 150.575C123.461 151.086 123.143 151.608 122.637 151.738C121.131 152.094 119.601 152.415 118.082 152.664C118.035 152.664 117.988 152.676 117.929 152.676ZM86.2075 150.563C86.1133 150.563 86.0192 150.552 85.925 150.516C84.4537 150.053 82.9706 149.543 81.5228 148.985C81.0285 148.795 80.7813 148.237 80.9814 147.739C81.1697 147.241 81.7229 146.991 82.2173 147.181C83.618 147.727 85.0658 148.226 86.49 148.677C86.9961 148.831 87.2786 149.377 87.1138 149.875C86.9844 150.291 86.6077 150.563 86.2075 150.563ZM126.851 150.54C126.439 150.54 126.063 150.279 125.945 149.863C125.792 149.353 126.074 148.819 126.569 148.665C128.005 148.214 129.441 147.715 130.841 147.169C131.336 146.979 131.889 147.229 132.077 147.715C132.266 148.214 132.018 148.771 131.536 148.961C130.1 149.519 128.617 150.041 127.146 150.504C127.04 150.516 126.945 150.54 126.851 150.54ZM77.6385 147.241C77.5091 147.241 77.3678 147.217 77.2383 147.146C75.8376 146.493 74.4487 145.781 73.0833 145.033C72.6243 144.772 72.4477 144.191 72.7067 143.728C72.9656 143.265 73.5424 143.087 74.0014 143.348C75.3197 144.072 76.6851 144.772 78.0387 145.401C78.5213 145.627 78.7214 146.196 78.4978 146.683C78.3448 147.027 78.0034 147.241 77.6385 147.241ZM135.397 147.217C135.032 147.217 134.69 147.015 134.537 146.659C134.314 146.172 134.526 145.603 134.996 145.377C136.35 144.737 137.704 144.048 139.022 143.324C139.481 143.063 140.058 143.241 140.317 143.704C140.576 144.167 140.399 144.748 139.94 145.009C138.586 145.757 137.198 146.469 135.797 147.122C135.667 147.181 135.526 147.217 135.397 147.217ZM143.412 142.766C143.095 142.766 142.789 142.612 142.612 142.327C142.33 141.876 142.459 141.283 142.906 140.998C144.166 140.179 145.425 139.313 146.626 138.411C147.049 138.091 147.65 138.186 147.956 138.613C148.274 139.04 148.179 139.645 147.756 139.954C146.52 140.88 145.225 141.77 143.93 142.612C143.766 142.719 143.589 142.766 143.412 142.766ZM150.781 137.284C150.51 137.284 150.239 137.165 150.051 136.94C149.71 136.536 149.757 135.931 150.169 135.587C151.31 134.614 152.44 133.581 153.523 132.525C153.9 132.157 154.5 132.169 154.877 132.549C155.242 132.928 155.23 133.534 154.853 133.913C153.747 134.993 152.582 136.049 151.405 137.058C151.216 137.212 151.004 137.284 150.781 137.284ZM38.0306 79.9279C38.0071 79.9279 37.9835 79.9279 37.9718 79.9279C37.4421 79.8923 37.0536 79.4413 37.0772 78.9073C37.1831 77.3527 37.3362 75.7861 37.5363 74.2434C37.6069 73.7212 38.0895 73.3533 38.6074 73.4126C39.1253 73.4838 39.5019 73.9704 39.4313 74.4926C39.2312 75.9879 39.0899 77.5069 38.984 79.026C38.9487 79.5363 38.525 79.9279 38.0306 79.9279ZM174.934 79.6787C174.44 79.6787 174.016 79.2871 173.981 78.7886C173.875 77.2814 173.722 75.7505 173.521 74.2552C173.451 73.7331 173.816 73.2465 174.334 73.1753C174.863 73.1041 175.334 73.472 175.405 73.9941C175.617 75.5369 175.77 77.1034 175.876 78.6581C175.911 79.1921 175.511 79.6431 174.993 79.6787C174.969 79.6787 174.957 79.6787 174.934 79.6787ZM39.2194 70.7662C39.1606 70.7662 39.09 70.7543 39.0311 70.7424C38.5132 70.6356 38.1836 70.1372 38.2896 69.615C38.5956 68.0841 38.9487 66.5532 39.3607 65.0579C39.5019 64.5476 40.0199 64.239 40.526 64.3814C41.0321 64.5238 41.3381 65.046 41.1969 65.5563C40.8085 67.016 40.4553 68.4995 40.1611 69.9948C40.0669 70.4457 39.6667 70.7662 39.2194 70.7662ZM173.698 70.5288C173.251 70.5288 172.862 70.2203 172.768 69.7574C172.462 68.274 172.109 66.7787 171.709 65.3308C171.568 64.8205 171.862 64.2865 172.38 64.1441C172.886 64.0017 173.416 64.2984 173.557 64.8205C173.969 66.3158 174.334 67.8468 174.64 69.3777C174.746 69.8998 174.416 70.4101 173.898 70.5169C173.828 70.5169 173.769 70.5288 173.698 70.5288ZM41.6324 61.8536C41.5265 61.8536 41.4205 61.8418 41.3264 61.8062C40.832 61.6282 40.5613 61.0823 40.7378 60.5838C41.244 59.1122 41.8089 57.6407 42.4092 56.2047C42.6093 55.7181 43.1743 55.4927 43.6569 55.6944C44.1395 55.8962 44.3632 56.4658 44.1631 56.9524C43.5746 58.3527 43.0331 59.7768 42.5387 61.2128C42.3975 61.6044 42.0208 61.8536 41.6324 61.8536ZM171.262 61.6163C170.873 61.6163 170.496 61.3671 170.367 60.9755C169.873 59.5513 169.319 58.1272 168.731 56.7387C168.519 56.2522 168.754 55.6825 169.237 55.4808C169.72 55.2672 170.285 55.5045 170.485 55.9911C171.085 57.4152 171.65 58.8868 172.168 60.3583C172.344 60.8568 172.085 61.4027 171.579 61.5807C171.473 61.6044 171.367 61.6163 171.262 61.6163ZM45.1989 53.3328C45.0577 53.3328 44.9046 53.2972 44.7751 53.226C44.3043 52.9886 44.116 52.4071 44.3514 51.9324C45.0459 50.5439 45.7992 49.1554 46.5878 47.8144C46.8585 47.3515 47.447 47.2091 47.8943 47.4821C48.3534 47.755 48.4946 48.3365 48.2239 48.7993C47.4588 50.1048 46.729 51.4458 46.0463 52.7987C45.8816 53.1429 45.552 53.3328 45.1989 53.3328ZM167.672 53.1429C167.318 53.1429 166.989 52.953 166.824 52.6207C166.141 51.2797 165.412 49.9386 164.646 48.6332C164.376 48.1822 164.529 47.5889 164.976 47.3159C165.423 47.043 166.012 47.1972 166.283 47.6482C167.071 48.9892 167.825 50.3659 168.531 51.7425C168.766 52.2172 168.578 52.7987 168.119 53.0361C167.966 53.1073 167.813 53.1429 167.672 53.1429ZM49.8718 45.3815C49.6834 45.3815 49.4951 45.3222 49.3303 45.2154C48.8948 44.9187 48.7889 44.3134 49.0832 43.8743C49.9542 42.5926 50.8841 41.3228 51.8375 40.1005C52.167 39.6851 52.7674 39.6139 53.1793 39.9462C53.5913 40.2785 53.6619 40.8837 53.3323 41.2991C52.4024 42.4858 51.4961 43.72 50.6486 44.9661C50.4721 45.2272 50.1778 45.3815 49.8718 45.3815ZM162.987 45.2035C162.681 45.2035 162.387 45.0611 162.198 44.7881C161.339 43.542 160.444 42.3078 159.503 41.121C159.173 40.7057 159.244 40.1004 159.656 39.7682C160.068 39.4359 160.668 39.5071 160.998 39.9224C161.951 41.1329 162.881 42.4027 163.764 43.6844C164.058 44.1235 163.952 44.7169 163.517 45.0255C163.363 45.156 163.175 45.2035 162.987 45.2035ZM55.5452 38.1186C55.3216 38.1186 55.0862 38.0355 54.9096 37.8694C54.5212 37.5133 54.4858 36.9081 54.839 36.5165C55.8748 35.3653 56.9577 34.226 58.0641 33.1461C58.4408 32.7782 59.0411 32.79 59.4177 33.1698C59.7826 33.5496 59.7708 34.1548 59.3942 34.5346C58.3113 35.5908 57.2637 36.6945 56.2514 37.81C56.0631 38.0118 55.8041 38.1186 55.5452 38.1186ZM157.29 37.9762C157.031 37.9762 156.772 37.8693 156.584 37.6557C155.571 36.5402 154.512 35.4365 153.429 34.3803C153.052 34.0124 153.041 33.4072 153.406 33.0155C153.771 32.6358 154.371 32.6239 154.759 32.9918C155.866 34.0717 156.96 35.1992 157.996 36.3503C158.349 36.7419 158.326 37.3472 157.925 37.7032C157.749 37.8931 157.514 37.9762 157.29 37.9762ZM62.1249 31.6864C61.8542 31.6864 61.5835 31.5677 61.3952 31.3422C61.0538 30.9387 61.1009 30.3335 61.5011 29.9893C62.6781 28.9806 63.9023 28.0074 65.1382 27.0818C65.5619 26.7613 66.1622 26.8563 66.4683 27.2835C66.7861 27.7107 66.6919 28.316 66.2682 28.6245C65.0676 29.5265 63.867 30.4759 62.7252 31.4609C62.5604 31.6152 62.3486 31.6864 62.1249 31.6864ZM150.687 31.5558C150.475 31.5558 150.251 31.4846 150.075 31.3303C148.933 30.3572 147.732 29.4078 146.52 28.5059C146.096 28.1973 146.002 27.5921 146.32 27.1648C146.626 26.7376 147.226 26.6427 147.65 26.9631C148.897 27.8888 150.122 28.8619 151.299 29.8588C151.699 30.2029 151.758 30.8082 151.416 31.2117C151.228 31.449 150.969 31.5558 150.687 31.5558ZM69.4933 26.1917C69.1755 26.1917 68.8695 26.0374 68.6929 25.7526C68.4104 25.3016 68.5399 24.7083 68.9754 24.4234C70.2702 23.5808 71.612 22.7738 72.9656 22.0262C73.4247 21.7651 74.0014 21.9431 74.2604 22.406C74.5193 22.8688 74.3428 23.4503 73.8837 23.7114C72.5654 24.4472 71.2589 25.2304 69.9994 26.0374C69.8464 26.1442 69.6699 26.1917 69.4933 26.1917ZM143.306 26.0849C143.13 26.0849 142.953 26.0374 142.8 25.9306C141.529 25.1118 140.223 24.3404 138.904 23.6046C138.445 23.3554 138.269 22.762 138.528 22.2992C138.775 21.8363 139.363 21.6583 139.822 21.9194C141.176 22.667 142.518 23.474 143.824 24.3048C144.272 24.5896 144.401 25.183 144.119 25.6339C143.93 25.9306 143.624 26.0849 143.306 26.0849ZM77.5091 21.7414C77.1442 21.7414 76.8028 21.5396 76.6498 21.1836C76.4262 20.697 76.638 20.1274 77.1089 19.9019C78.5096 19.2492 79.9456 18.6321 81.3816 18.0624C81.8759 17.8726 82.4291 18.1218 82.6175 18.6084C82.8058 19.1068 82.5586 19.6645 82.076 19.8544C80.6753 20.4003 79.2864 20.9937 77.921 21.6346C77.7798 21.7176 77.6503 21.7414 77.5091 21.7414ZM135.255 21.6464C135.126 21.6464 134.985 21.6227 134.855 21.5515C133.49 20.9106 132.089 20.3173 130.688 19.7714C130.194 19.5815 129.947 19.0237 130.135 18.5253C130.324 18.0268 130.877 17.7776 131.371 17.9675C132.819 18.5253 134.255 19.1424 135.656 19.7951C136.138 20.0206 136.338 20.5902 136.115 21.0649C135.962 21.4447 135.62 21.6464 135.255 21.6464ZM86.0427 18.4066C85.6307 18.4066 85.2659 18.1455 85.1364 17.7301C84.9834 17.2198 85.2659 16.6858 85.7602 16.5315C87.2315 16.0687 88.7382 15.6533 90.2448 15.2854C90.7627 15.1668 91.2689 15.4753 91.3983 15.9975C91.516 16.5078 91.21 17.03 90.6921 17.1605C89.2325 17.5165 87.773 17.92 86.337 18.371C86.2428 18.3947 86.1369 18.4066 86.0427 18.4066ZM126.698 18.3354C126.604 18.3354 126.51 18.3235 126.416 18.2879C124.98 17.837 123.508 17.4453 122.049 17.0893C121.531 16.9706 121.213 16.4485 121.343 15.9382C121.472 15.4279 121.978 15.1074 122.484 15.2261C123.979 15.5821 125.498 15.9975 126.969 16.4485C127.475 16.6027 127.758 17.1368 127.605 17.6471C127.475 18.0743 127.098 18.3354 126.698 18.3354ZM94.953 16.2586C94.494 16.2586 94.0938 15.9263 94.0114 15.4634C93.929 14.9413 94.2703 14.4428 94.7882 14.3598C96.3066 14.0987 97.8486 13.8851 99.3905 13.7308C99.9202 13.6715 100.379 14.0631 100.438 14.5853C100.485 15.1193 100.109 15.5821 99.5906 15.6415C98.0958 15.7957 96.5891 15.9975 95.106 16.2467C95.059 16.2586 95.0119 16.2586 94.953 16.2586ZM117.776 16.223C117.729 16.223 117.67 16.223 117.623 16.2111C116.14 15.9619 114.633 15.7601 113.139 15.6177C112.609 15.5703 112.232 15.0955 112.279 14.5734C112.326 14.0512 112.797 13.6596 113.315 13.7071C114.857 13.8613 116.399 14.0631 117.917 14.3123C118.435 14.3954 118.788 14.8938 118.706 15.416C118.635 15.8907 118.235 16.223 117.776 16.223ZM104.075 15.3329C103.569 15.3329 103.145 14.9294 103.122 14.4072C103.098 13.8732 103.51 13.4341 104.04 13.4104C105.57 13.351 107.159 13.351 108.689 13.3985C109.219 13.4104 109.631 13.8613 109.607 14.3954C109.596 14.9175 109.172 15.321 108.654 15.321C108.642 15.321 108.63 15.321 108.619 15.321C107.136 15.2736 105.582 15.2736 104.099 15.3329C104.099 15.3329 104.087 15.3329 104.075 15.3329Z" fill="#DEDEDE"/>
<path d="M31.3097 84.7579C31.2979 84.3426 31.2979 83.9272 31.2979 83.5C31.2979 41.7025 65.0323 7.69016 106.488 7.69016C147.944 7.69016 181.679 41.7025 181.679 83.5C181.679 85.3988 181.608 87.2739 181.467 89.1252C183.785 89.8254 186.234 90.49 188.965 91.0478C189.188 88.5556 189.306 86.0278 189.306 83.5C189.306 61.2009 180.69 40.231 165.047 24.459C149.404 8.68704 128.605 0 106.488 0C84.3714 0 63.5728 8.68704 47.9297 24.459C32.4514 40.0648 23.8589 60.7737 23.6824 82.8236C26.4602 83.3813 28.9556 84.0459 31.3097 84.7579Z" fill="#DEDEDE"/>
<path d="M163.87 132.43C150.063 148.866 129.464 159.31 106.488 159.31C87.7143 159.31 70.5293 152.343 57.3463 140.832C51.8377 140.084 47.4708 138.933 43.457 137.663C44.8813 139.337 46.3643 140.962 47.9298 142.541C63.5729 158.313 84.3715 167 106.488 167C128.605 167 149.404 158.313 165.047 142.541C167.495 140.072 169.755 137.485 171.85 134.791C169.343 133.949 166.754 133.142 163.87 132.43Z" fill="#DEDEDE"/>
<path d="M209.186 145.603C191.436 145.603 182.432 142.494 173.722 139.491C165.223 136.56 157.208 133.795 140.729 133.795C124.25 133.795 116.222 136.56 107.736 139.491C99.0257 142.494 90.0212 145.603 72.2712 145.603C54.5212 145.603 45.5168 142.494 36.8066 139.491C28.3082 136.56 20.2925 133.795 3.81368 133.795C1.70676 133.795 0 132.074 0 129.95V81.0672C0 78.9429 1.70676 77.2222 3.81368 77.2222C21.5637 77.2222 30.5681 80.3315 39.2783 83.3339C47.7767 86.2652 55.7925 89.0304 72.2712 89.0304C88.75 89.0304 96.7775 86.2652 105.264 83.3339C113.974 80.3315 122.979 77.2222 140.729 77.2222C158.479 77.2222 167.483 80.3315 176.193 83.3339C184.692 86.2652 192.708 89.0304 209.186 89.0304C211.293 89.0304 213 90.7511 213 92.8754V141.758C213 143.87 211.293 145.603 209.186 145.603ZM7.60381 126.152C22.8702 126.567 31.192 129.427 39.2548 132.216C47.7532 135.148 55.7689 137.913 72.2477 137.913C88.7265 137.913 96.754 135.148 105.241 132.216C113.951 129.214 122.955 126.105 140.705 126.105C158.455 126.105 167.46 129.214 176.17 132.216C183.986 134.91 191.389 137.474 205.361 137.865V96.6731C190.083 96.2577 181.773 93.3976 173.71 90.6087C165.212 87.6775 157.196 84.9123 140.717 84.9123C124.238 84.9123 116.211 87.6775 107.724 90.6087C99.0139 93.6112 90.0095 96.7205 72.2595 96.7205C54.5095 96.7205 45.505 93.6112 36.7948 90.6087C28.9791 87.9148 21.5754 85.3514 7.61555 84.9598V126.152H7.60381Z" fill="#DEDEDE"/>
<path d="M70.847 67.2059L75.5788 64.6069L78.0741 69.2234L62.8901 77.5781L60.3947 72.9616L65.0912 70.3745L59.0764 59.2546L56.0514 64.2153L53.356 59.2309L58.0171 51.6357L61.3952 49.7725L70.847 67.2059Z" fill="#DEDEDE"/>
<path d="M80.6048 65.414C78.4625 63.6813 76.8853 60.7857 75.8495 56.727C74.8372 52.7395 74.849 49.4759 75.9083 46.9244C76.9559 44.3847 78.9804 42.7233 81.9584 41.9519C84.9481 41.1805 87.5023 41.6552 89.6328 43.376C91.7633 45.0968 93.3405 47.945 94.3645 51.9444C95.4004 56.0031 95.3886 59.3022 94.341 61.8656C93.2934 64.4171 91.2807 66.0786 88.2909 66.85C85.3012 67.6214 82.7352 67.1348 80.6048 65.414ZM88.9383 59.6227C89.1031 58.3054 88.8442 56.276 88.1497 53.5346C87.467 50.8644 86.749 49.0012 85.9721 47.945C85.1953 46.8769 84.2654 46.4972 83.1825 46.7701C82.0996 47.0549 81.464 47.8501 81.2992 49.1555C81.1227 50.4609 81.3816 52.4547 82.0526 55.113C82.747 57.8544 83.4885 59.7532 84.2654 60.8331C85.0422 61.9012 85.9721 62.3047 87.0668 62.0199C88.1497 61.7469 88.7735 60.9518 88.9383 59.6227Z" fill="#DEDEDE"/>
<path d="M101.297 60.9635C99.6495 58.7561 98.8138 55.5638 98.802 51.3745C98.7902 47.2565 99.6024 44.0997 101.239 41.8923C102.875 39.685 105.241 38.5813 108.313 38.5694C111.397 38.5576 113.762 39.6494 115.41 41.8449C117.058 44.0404 117.894 47.1971 117.906 51.3152C117.917 55.5044 117.105 58.7086 115.469 60.9279C113.833 63.1471 111.467 64.2626 108.395 64.2626C105.311 64.2745 102.945 63.1708 101.297 60.9635ZM110.784 57.427C111.267 56.1927 111.514 54.1634 111.502 51.3389C111.491 48.5856 111.243 46.6038 110.749 45.3814C110.255 44.159 109.443 43.5538 108.324 43.5538C107.206 43.5538 106.406 44.1709 105.911 45.3933C105.429 46.6156 105.182 48.6094 105.193 51.3626C105.205 54.1871 105.452 56.2165 105.947 57.4507C106.441 58.6849 107.242 59.302 108.371 59.302C109.501 59.2783 110.302 58.6612 110.784 57.427Z" fill="#DEDEDE"/>
<path d="M124.662 52.0273C123.944 50.3896 123.968 48.384 124.733 46.0105C125.486 43.6844 126.639 42.0823 128.17 41.2041C129.712 40.3259 131.465 40.2072 133.443 40.86C135.42 41.5127 136.762 42.652 137.48 44.2897C138.198 45.9274 138.186 47.9093 137.421 50.2353C136.656 52.6088 135.491 54.2347 133.961 55.1129C132.419 55.9911 130.665 56.1097 128.688 55.457C126.734 54.8162 125.38 53.665 124.662 52.0273ZM130.112 66.6719L125.05 64.9985L146.591 45.6663L151.617 47.3278L130.112 66.6719ZM131.301 51.3271C131.689 50.8761 132.113 49.9742 132.548 48.6332C132.96 47.3633 133.137 46.4021 133.066 45.7731C132.996 45.1441 132.725 44.7525 132.23 44.5864C131.748 44.4202 131.289 44.5745 130.877 45.0492C130.465 45.5239 130.053 46.3902 129.641 47.6719C129.217 48.9892 129.029 49.9623 129.088 50.5676C129.147 51.1847 129.417 51.5645 129.912 51.7306C130.441 51.9205 130.912 51.7781 131.301 51.3271ZM139.269 67.8586C138.575 66.2327 138.61 64.2271 139.375 61.8536C140.129 59.5276 141.27 57.9255 142.789 57.0354C144.307 56.1453 146.049 56.0385 148.027 56.6794C150.028 57.3439 151.369 58.4832 152.076 60.0972C152.782 61.7112 152.747 63.7049 151.981 66.0429C151.205 68.4164 150.063 70.0422 148.556 70.9323C147.038 71.8224 145.284 71.9292 143.283 71.2764C141.294 70.6237 139.964 69.4845 139.269 67.8586ZM145.861 67.1228C146.273 66.66 146.685 65.7699 147.12 64.4526C147.532 63.1828 147.709 62.2215 147.638 61.5925C147.568 60.9635 147.297 60.5719 146.802 60.4058C146.32 60.2396 145.861 60.4058 145.449 60.8686C145.037 61.3433 144.625 62.2096 144.213 63.4913C143.789 64.8086 143.601 65.7818 143.66 66.387C143.719 67.0041 143.989 67.3839 144.484 67.55C144.99 67.728 145.449 67.5738 145.861 67.1228Z" fill="#DEDEDE"/>
<path d="M34.6172 108.755L32.8634 116.516C31.9571 116.706 30.9801 116.789 29.9208 116.753C28.8614 116.73 27.8021 116.587 26.731 116.338C25.0595 115.958 23.6824 115.305 22.5995 114.38C21.5166 113.466 20.775 112.327 20.3866 110.974C19.9982 109.621 19.9864 108.137 20.3513 106.5C20.7162 104.909 21.3518 103.58 22.2934 102.536C23.2233 101.492 24.3651 100.791 25.7187 100.412C27.0723 100.044 28.5554 100.044 30.1679 100.412C31.2744 100.661 32.2867 101.053 33.2048 101.563C34.1229 102.073 34.8409 102.666 35.3352 103.307L33.4048 105.906C32.8045 105.277 32.2042 104.791 31.5922 104.423C30.9801 104.067 30.3092 103.794 29.5559 103.628C28.1905 103.319 27.0841 103.473 26.2366 104.091C25.3891 104.708 24.7888 105.823 24.4357 107.414C24.059 109.063 24.1296 110.369 24.6475 111.33C25.1654 112.291 26.1542 112.932 27.602 113.264C28.2729 113.419 28.9674 113.502 29.6736 113.513L30.321 110.642L27.6491 110.024L28.2729 107.259L34.6172 108.755Z" fill="#DEDEDE"/>
<path d="M36.8535 119.269L41.7736 104.186L45.7285 105.503L41.856 117.359L48.1768 119.459L47.1292 122.675L36.8535 119.269Z" fill="#DEDEDE"/>
<path d="M54.3565 122.734C53.3089 121.441 52.9204 119.672 53.1676 117.429L54.1799 108.303L58.2054 108.754L57.1696 118.035C57.0401 119.174 57.1931 120.076 57.6404 120.74C58.0759 121.405 58.7704 121.785 59.7003 121.892C60.6184 121.998 61.3717 121.773 61.9367 121.215C62.5017 120.657 62.8548 119.815 62.9725 118.699L64.0083 109.419L68.0692 109.882L67.0569 119.008C66.8097 121.227 66.0211 122.853 64.7028 123.885C63.3727 124.93 61.5953 125.321 59.3472 125.06C57.0637 124.799 55.404 124.028 54.3565 122.734Z" fill="#DEDEDE"/>
<path d="M76.3556 125.488L75.7788 113.015L71.0942 113.24L70.9412 109.858L84.5008 109.217L84.6539 112.6L79.9692 112.825L80.5459 125.298L76.3556 125.488Z" fill="#DEDEDE"/>
<path d="M91.0453 124.158L87.161 108.766L98.0488 105.977L98.8374 109.086L91.8692 110.878L92.599 113.774L99.1199 112.101L99.9085 115.21L93.3876 116.883L94.188 120.04L101.156 118.26L101.945 121.369L91.0453 124.158Z" fill="#DEDEDE"/>
<path d="M111.773 101.266L115.528 100.139L120.036 115.353L117.093 116.243L107.689 109.68L110.255 118.308L106.547 119.423L102.039 104.209L104.946 103.331L114.339 109.858L111.773 101.266Z" fill="#DEDEDE"/>
<path d="M132.654 113.857L132.313 97.9786L143.306 97.7412L143.377 101.017L136.48 101.171L136.538 104.067L143 103.924L143.071 107.176L136.609 107.318L136.75 113.762L132.654 113.857Z" fill="#DEDEDE"/>
<path d="M160.88 115.222L156.501 114.724L155.065 109.241C154.901 108.624 154.383 108.268 153.512 108.161L152.017 107.995L151.322 114.13L147.261 113.667L149.039 97.8955L156.313 98.7262C158.208 98.9398 159.573 99.5095 160.433 100.447C161.292 101.373 161.633 102.595 161.469 104.126C161.351 105.194 160.962 106.072 160.315 106.784C159.668 107.496 158.808 107.959 157.749 108.161C158.173 108.303 158.549 108.553 158.867 108.92C159.185 109.288 159.409 109.751 159.55 110.321L160.88 115.222ZM156.89 104.992C157.314 104.767 157.561 104.363 157.631 103.782C157.702 103.177 157.549 102.714 157.196 102.405C156.843 102.097 156.207 101.883 155.313 101.788L152.723 101.491L152.346 104.885L154.936 105.182C155.819 105.277 156.466 105.218 156.89 104.992Z" fill="#DEDEDE"/>
<path d="M164.388 116.184L169.084 101.029L179.807 104.411L178.854 107.473L171.991 105.313L171.109 108.161L177.524 110.179L176.57 113.241L170.155 111.223L169.19 114.332L176.052 116.492L175.099 119.554L164.388 116.184Z" fill="#DEDEDE"/>
<path d="M179.666 121.369L183.644 106.013L194.508 108.885L193.708 111.994L186.752 110.154L185.998 113.05L192.507 114.771L191.707 117.88L185.198 116.159L184.386 119.304L191.342 121.144L190.542 124.253L179.666 121.369Z" fill="#DEDEDE"/>
</svg>
