<svg width="639" height="429" viewBox="0 0 639 429" fill="none" xmlns="http://www.w3.org/2000/svg">
<g clip-path="url(#clip0_124_0)">
<path d="M509.048 189.851L510.945 174.615C511.619 169.2 514.412 164.275 518.71 160.924C523.007 157.573 528.457 156.069 533.86 156.745C539.264 157.421 544.178 160.22 547.522 164.526C550.866 168.833 552.366 174.294 551.692 179.709L549.795 194.946C549.704 195.673 549.328 196.334 548.751 196.784C548.174 197.234 547.443 197.436 546.717 197.346L511.444 192.936C510.718 192.845 510.058 192.468 509.609 191.89C509.16 191.312 508.959 190.579 509.048 189.851Z" fill="#2F2E41"/>
<path d="M525.944 194.397C534.258 194.397 540.997 187.643 540.997 179.312C540.997 170.981 534.258 164.227 525.944 164.227C517.631 164.227 510.892 170.981 510.892 179.312C510.892 187.643 517.631 194.397 525.944 194.397Z" fill="#FFB8B8"/>
<path d="M505.973 175.231C506.511 170.95 508.722 167.057 512.12 164.407C515.519 161.757 519.827 160.566 524.1 161.095L527.141 161.476C531.414 162.015 535.298 164.23 537.942 167.635C540.587 171.041 541.775 175.359 541.247 179.641L541.209 179.946L534.783 179.143L533.357 172.718L532.153 178.814L528.831 178.398L528.112 175.157L527.504 178.233L505.936 175.536L505.973 175.231Z" fill="#2F2E41"/>
<path d="M452.321 233.123C452.781 234.029 453.434 234.822 454.233 235.447C455.032 236.072 455.958 236.514 456.946 236.742C457.934 236.969 458.96 236.977 459.951 236.765C460.942 236.552 461.875 236.124 462.683 235.511L476.355 243.538L483.249 236.401L463.782 225.338C462.665 224.045 461.113 223.208 459.421 222.985C457.729 222.763 456.014 223.169 454.601 224.129C453.188 225.089 452.176 226.534 451.756 228.192C451.336 229.85 451.537 231.604 452.321 233.123Z" fill="#FFB8B8"/>
<path d="M497.131 247.546C487.047 247.546 469.3 243.021 468.318 242.769L468.007 242.689L470.8 228.517L497.906 233.883L512.632 213.102L529.538 211.38L529.066 212.002C528.846 212.292 507.053 241.042 503.661 245.864C502.806 247.081 500.361 247.546 497.131 247.546Z" fill="#3F3D56"/>
<path d="M499.835 300.735L499.431 300.542C499.346 300.5 490.777 296.324 486.339 288.17C481.923 280.055 502.599 245.632 504.045 243.243L504.066 232.311L511.504 212.186L520.99 206.813L512.846 225.857L499.835 300.735Z" fill="#3F3D56"/>
<path d="M490.332 418.233L481.267 418.232L476.953 383.189L490.333 383.19L490.332 418.233Z" fill="#FFB8B8"/>
<path d="M492.644 427.039L463.412 427.038V426.668C463.412 423.644 464.611 420.744 466.745 418.605C468.879 416.467 471.773 415.266 474.79 415.266H474.791L492.645 415.266L492.644 427.039Z" fill="#2F2E41"/>
<path d="M587.709 410.271L579.094 413.099L564.107 381.145L576.822 376.97L587.709 410.271Z" fill="#FFB8B8"/>
<path d="M592.642 417.918L564.864 427.039L564.749 426.687C563.809 423.813 564.047 420.683 565.41 417.986C566.774 415.288 569.15 413.243 572.018 412.301L572.018 412.301L588.985 406.731L592.642 417.918Z" fill="#2F2E41"/>
<path d="M570.156 404.542L544.312 361.304L522.496 315.11L502.863 355.915L495.064 408.764L467.714 409.145L467.822 408.716L509.677 242.052L542.457 246.96L540.965 268.644L541.853 269.91C549.258 280.452 556.915 291.352 552.523 303.101L564.972 340.144L592.528 401.824L570.156 404.542Z" fill="#2F2E41"/>
<path d="M511.174 278.173C506.424 278.173 501.005 272.738 503.817 263.459L503.635 263.326L510.387 233.428C504.494 224.981 512.264 218.011 512.992 217.388L516.701 210.698L533.065 200.298L541.345 269.239L541.222 269.357C535.242 275.091 515.159 278.173 511.174 278.173Z" fill="#FF5300"/>
<path d="M544.688 293.73C544.037 293.74 543.388 293.671 542.755 293.525C542.118 293.365 541.088 292.553 539.496 287.358C533.166 266.706 525.693 204.566 531.122 198.485L531.247 198.346L540.161 199.834C540.902 199.286 544.791 196.566 548.379 197.039C549.117 197.132 549.829 197.376 550.47 197.756C551.111 198.136 551.668 198.643 552.105 199.247L552.167 199.327L555.006 239.815L565.41 287.462L565.161 287.576C564.556 287.852 551.564 293.73 544.688 293.73Z" fill="#3F3D56"/>
<path d="M538.692 277.905C539.706 277.871 540.699 277.615 541.603 277.154C542.506 276.694 543.298 276.041 543.923 275.241C544.547 274.441 544.989 273.513 545.217 272.523C545.446 271.533 545.454 270.506 545.243 269.512L558.293 260.505L554.765 251.223L536.515 264.202C534.873 264.668 533.458 265.722 532.54 267.163C531.621 268.605 531.262 270.334 531.53 272.023C531.799 273.712 532.676 275.243 533.996 276.328C535.316 277.412 536.987 277.973 538.692 277.905Z" fill="#FFB8B8"/>
<path d="M553.987 267.722L542.363 259.18L558.702 236.852L546.163 214.677L551.773 198.602L552.135 199.294C552.304 199.617 569.049 231.584 571.97 236.707C575.009 242.036 555.042 266.438 554.19 267.474L553.987 267.722Z" fill="#3F3D56"/>
<path d="M292.522 368.218L282.629 364.043L275.842 314.344H185.469L178.113 363.84L169.262 368.275C168.838 368.487 168.499 368.837 168.298 369.266C168.098 369.696 168.048 370.181 168.156 370.643C168.265 371.105 168.526 371.516 168.898 371.811C169.269 372.105 169.728 372.265 170.202 372.265H291.706C292.192 372.265 292.662 372.097 293.038 371.789C293.413 371.481 293.671 371.052 293.767 370.576C293.863 370.099 293.791 369.604 293.564 369.174C293.337 368.744 292.969 368.406 292.522 368.218Z" fill="#E6E6E6"/>
<path d="M453.122 320.956H9.18087C6.85163 320.951 4.61958 320.02 2.97441 318.368C1.32924 316.715 0.405289 314.477 0.405273 312.142V249.407H461.898V312.142C461.898 314.477 460.974 316.716 459.329 318.368C457.684 320.02 455.452 320.951 453.122 320.956Z" fill="#CCCCCC"/>
<path d="M462.362 279.057H0V10.6252C0.00324784 7.80816 1.12139 5.10743 3.10912 3.11551C5.09685 1.12359 7.79185 0.00315932 10.6029 0H451.759C454.57 0.00315207 457.265 1.12359 459.253 3.1155C461.241 5.10742 462.359 7.80814 462.362 10.6252V279.057Z" fill="#3F3D56"/>
<path d="M434.747 259.574H27.6151C25.448 259.572 23.3703 258.708 21.8379 257.173C20.3055 255.637 19.4435 253.555 19.441 251.383V27.6742C19.4435 25.5024 20.3054 23.4202 21.8378 21.8844C23.3702 20.3487 25.4479 19.4848 27.6151 19.4823H434.747C436.914 19.4848 438.992 20.3487 440.524 21.8844C442.057 23.4202 442.919 25.5024 442.921 27.6742V251.383C442.919 253.555 442.057 255.637 440.524 257.173C438.992 258.708 436.914 259.572 434.747 259.574Z" fill="white"/>
<path d="M345.361 372.784H116.588C116.354 372.789 116.125 372.716 115.936 372.576C115.747 372.437 115.61 372.239 115.545 372.013C115.504 371.86 115.5 371.699 115.531 371.543C115.562 371.387 115.629 371.241 115.726 371.115C115.823 370.989 115.947 370.887 116.089 370.817C116.231 370.746 116.388 370.71 116.546 370.71H345.277C345.524 370.701 345.767 370.777 345.966 370.924C346.165 371.071 346.308 371.281 346.372 371.521C346.406 371.672 346.405 371.83 346.37 371.981C346.335 372.132 346.266 372.274 346.169 372.395C346.072 372.516 345.949 372.614 345.809 372.681C345.669 372.749 345.516 372.784 345.361 372.784Z" fill="#CCCCCC"/>
<path d="M430.4 55.6493H332.1V130.909H430.4V55.6493Z" fill="#F2F2F2"/>
<path d="M425.516 59.3889H336.985V127.169H425.516V59.3889Z" fill="white"/>
<path d="M382.805 109.665C382.817 109.665 382.829 109.665 382.84 109.664C388.833 109.35 394.482 106.76 398.637 102.421C402.792 98.0826 405.143 92.3206 405.21 86.3072C405.277 80.2937 403.056 74.4803 398.999 70.0492C394.942 65.6182 389.353 62.9021 383.368 62.4534C383.294 62.4476 383.22 62.4571 383.15 62.4815C383.08 62.5059 383.015 62.5445 382.961 62.595C382.907 62.6446 382.863 62.7049 382.833 62.7722C382.803 62.8395 382.787 62.9123 382.787 62.986L382.271 109.119C382.269 109.262 382.325 109.4 382.425 109.503C382.525 109.605 382.662 109.663 382.805 109.665Z" fill="#3F3D56"/>
<path d="M364.294 70.0818C364.477 70.084 364.653 70.1591 364.781 70.2906L380.629 86.5323C380.693 86.5973 380.743 86.6743 380.777 86.7588C380.811 86.8434 380.828 86.9338 380.826 87.0249L380.579 109.1C380.579 109.194 380.558 109.288 380.52 109.374C380.481 109.461 380.425 109.539 380.356 109.602C380.285 109.667 380.203 109.716 380.113 109.748C380.023 109.779 379.928 109.791 379.833 109.784C375.426 109.454 371.199 107.898 367.627 105.293C364.054 102.688 361.277 99.1353 359.608 95.0353C357.939 90.9353 357.443 86.4501 358.178 82.0836C358.912 77.7172 360.848 73.6425 363.766 70.3174C363.829 70.2458 363.906 70.1879 363.992 70.1474C364.079 70.1069 364.173 70.0846 364.268 70.082C364.276 70.0818 364.285 70.0817 364.294 70.0818Z" fill="#E6E6E6"/>
<path d="M380.408 62.2648C380.585 62.267 380.755 62.3364 380.882 62.459C380.951 62.5244 381.005 62.6033 381.042 62.6908C381.079 62.7782 381.097 62.8723 381.095 62.9671L380.873 82.8843C380.871 83.0214 380.829 83.155 380.752 83.2682C380.674 83.3813 380.565 83.469 380.438 83.5201C380.311 83.5711 380.172 83.5833 380.038 83.5551C379.904 83.5268 379.782 83.4594 379.686 83.3614L365.857 69.1885C365.791 69.1211 365.74 69.041 365.706 68.9531C365.672 68.8652 365.656 68.7714 365.66 68.6772C365.663 68.5831 365.686 68.4906 365.726 68.4054C365.766 68.3203 365.824 68.2442 365.894 68.1819C369.916 64.6341 375.015 62.5497 380.365 62.2657C380.38 62.265 380.394 62.2647 380.408 62.2648Z" fill="#FF5300"/>
<path d="M373.284 119.231C373.275 120.072 373.017 120.89 372.543 121.584C372.07 122.277 371.402 122.814 370.623 123.127C369.845 123.44 368.992 123.514 368.171 123.341C367.351 123.168 366.6 122.755 366.014 122.154C365.428 121.553 365.032 120.792 364.878 119.966C364.724 119.14 364.817 118.287 365.147 117.514C365.476 116.741 366.027 116.084 366.729 115.625C367.432 115.166 368.254 114.926 369.092 114.935C370.216 114.949 371.289 115.409 372.075 116.215C372.861 117.02 373.296 118.105 373.284 119.231Z" fill="#FF5300"/>
<path d="M385.396 119.367C385.387 120.208 385.129 121.026 384.655 121.72C384.182 122.413 383.514 122.95 382.735 123.263C381.957 123.576 381.104 123.65 380.283 123.477C379.463 123.304 378.712 122.891 378.126 122.29C377.54 121.689 377.144 120.928 376.99 120.102C376.836 119.276 376.929 118.423 377.259 117.65C377.588 116.877 378.139 116.22 378.841 115.761C379.544 115.302 380.366 115.062 381.205 115.071C382.328 115.085 383.401 115.545 384.187 116.351C384.973 117.156 385.408 118.241 385.396 119.367Z" fill="#3F3D56"/>
<path d="M397.509 119.504C397.499 120.344 397.241 121.162 396.768 121.856C396.294 122.549 395.626 123.086 394.848 123.399C394.069 123.712 393.216 123.786 392.396 123.613C391.575 123.44 390.824 123.027 390.238 122.426C389.652 121.825 389.257 121.064 389.102 120.238C388.948 119.412 389.041 118.559 389.371 117.786C389.7 117.013 390.251 116.356 390.954 115.897C391.656 115.438 392.478 115.198 393.317 115.208C394.441 115.221 395.513 115.682 396.299 116.487C397.085 117.292 397.52 118.377 397.509 119.504Z" fill="#E6E6E6"/>
<path d="M429.366 142.753H331.066V218.013H429.366V142.753Z" fill="#F2F2F2"/>
<path d="M424.481 146.493H335.95V214.273H424.481V146.493Z" fill="white"/>
<path d="M350.971 168.77C353.001 168.77 354.647 167.121 354.647 165.086C354.647 163.052 353.001 161.403 350.971 161.403C348.941 161.403 347.295 163.052 347.295 165.086C347.295 167.121 348.941 168.77 350.971 168.77Z" fill="#3F3D56"/>
<path d="M410.033 162.22C410.36 162.219 410.685 162.283 410.988 162.409C411.291 162.534 411.566 162.718 411.798 162.95C412.03 163.182 412.214 163.458 412.339 163.761C412.465 164.064 412.53 164.389 412.53 164.718C412.53 165.046 412.465 165.372 412.339 165.675C412.214 165.978 412.03 166.254 411.798 166.486C411.566 166.718 411.291 166.902 410.988 167.027C410.685 167.152 410.36 167.217 410.033 167.216H371.372C370.711 167.216 370.077 166.953 369.609 166.484C369.142 166.016 368.879 165.38 368.879 164.718C368.879 164.055 369.142 163.42 369.609 162.951C370.077 162.483 370.711 162.22 371.372 162.22H410.033ZM410.033 161.608H371.372C370.964 161.607 370.56 161.687 370.183 161.843C369.806 161.999 369.463 162.228 369.175 162.517C368.886 162.806 368.657 163.149 368.501 163.527C368.344 163.904 368.264 164.309 368.264 164.718C368.264 165.127 368.344 165.532 368.501 165.909C368.657 166.287 368.886 166.63 369.175 166.919C369.463 167.208 369.806 167.437 370.183 167.593C370.56 167.749 370.964 167.829 371.372 167.828H410.033C410.441 167.829 410.845 167.749 411.222 167.593C411.599 167.437 411.941 167.208 412.23 166.919C412.519 166.63 412.748 166.287 412.904 165.909C413.06 165.532 413.141 165.127 413.141 164.718C413.141 164.309 413.06 163.904 412.904 163.527C412.748 163.149 412.519 162.806 412.23 162.517C411.941 162.228 411.599 161.999 411.222 161.843C410.845 161.687 410.441 161.607 410.033 161.608Z" fill="#3F3D56"/>
<path d="M394.778 167.828H365.675C364.852 167.828 364.062 167.5 363.48 166.917C362.898 166.334 362.571 165.543 362.571 164.718C362.571 163.893 362.898 163.102 363.48 162.519C364.062 161.935 364.852 161.608 365.675 161.608H394.778C395.601 161.608 396.39 161.935 396.972 162.519C397.554 163.102 397.881 163.893 397.881 164.718C397.881 165.543 397.554 166.334 396.972 166.917C396.39 167.5 395.601 167.828 394.778 167.828Z" fill="#FF5300"/>
<path d="M350.971 184.067C353.001 184.067 354.647 182.417 354.647 180.383C354.647 178.348 353.001 176.699 350.971 176.699C348.941 176.699 347.295 178.348 347.295 180.383C347.295 182.417 348.941 184.067 350.971 184.067Z" fill="#3F3D56"/>
<path d="M410.033 177.516C410.36 177.516 410.685 177.58 410.988 177.705C411.291 177.831 411.566 178.015 411.798 178.247C412.03 178.479 412.214 178.754 412.34 179.058C412.465 179.361 412.53 179.686 412.53 180.015C412.53 180.343 412.465 180.668 412.34 180.972C412.214 181.275 412.03 181.55 411.798 181.783C411.566 182.015 411.291 182.198 410.988 182.324C410.685 182.449 410.36 182.513 410.033 182.513H371.372C370.711 182.513 370.077 182.25 369.609 181.781C369.142 181.313 368.879 180.677 368.879 180.015C368.879 179.352 369.142 178.717 369.609 178.248C370.077 177.78 370.711 177.516 371.372 177.516H410.033ZM410.033 176.904H371.372C370.549 176.904 369.76 177.232 369.178 177.815C368.596 178.399 368.269 179.19 368.269 180.015C368.269 180.839 368.596 181.63 369.178 182.214C369.76 182.797 370.549 183.125 371.372 183.125H410.033C410.856 183.125 411.645 182.797 412.227 182.214C412.809 181.63 413.136 180.839 413.136 180.015C413.136 179.19 412.809 178.399 412.227 177.815C411.645 177.232 410.856 176.904 410.033 176.904Z" fill="#3F3D56"/>
<path d="M405.768 183.125H365.675C364.852 183.125 364.062 182.797 363.48 182.214C362.898 181.63 362.571 180.839 362.571 180.014C362.571 179.19 362.898 178.399 363.48 177.815C364.062 177.232 364.852 176.904 365.675 176.904H405.768C406.591 176.904 407.381 177.232 407.963 177.815C408.545 178.399 408.872 179.19 408.872 180.014C408.872 180.839 408.545 181.63 407.963 182.214C407.381 182.797 406.591 183.125 405.768 183.125Z" fill="#FF5300"/>
<path d="M350.971 199.363C353.001 199.363 354.647 197.714 354.647 195.68C354.647 193.645 353.001 191.996 350.971 191.996C348.941 191.996 347.295 193.645 347.295 195.68C347.295 197.714 348.941 199.363 350.971 199.363Z" fill="#3F3D56"/>
<path d="M410.033 192.813C410.36 192.812 410.685 192.877 410.988 193.002C411.291 193.127 411.566 193.311 411.798 193.543C412.03 193.775 412.214 194.051 412.34 194.354C412.465 194.658 412.53 194.983 412.53 195.311C412.53 195.64 412.465 195.965 412.34 196.268C412.214 196.572 412.03 196.847 411.798 197.079C411.566 197.311 411.291 197.495 410.988 197.62C410.685 197.746 410.36 197.81 410.033 197.809H371.372C370.711 197.809 370.077 197.546 369.609 197.078C369.142 196.609 368.879 195.974 368.879 195.311C368.879 194.649 369.142 194.013 369.609 193.545C370.077 193.076 370.711 192.813 371.372 192.813H410.033ZM410.033 192.201H371.372C370.549 192.201 369.76 192.529 369.178 193.112C368.596 193.695 368.269 194.486 368.269 195.311C368.269 196.136 368.596 196.927 369.178 197.51C369.76 198.094 370.549 198.421 371.372 198.421H410.033C410.856 198.421 411.645 198.094 412.227 197.51C412.809 196.927 413.136 196.136 413.136 195.311C413.136 194.486 412.809 193.695 412.227 193.112C411.645 192.529 410.856 192.201 410.033 192.201Z" fill="#3F3D56"/>
<path d="M381.956 198.421H365.675C365.267 198.422 364.863 198.342 364.486 198.186C364.109 198.03 363.766 197.801 363.477 197.512C363.189 197.223 362.96 196.88 362.803 196.502C362.647 196.125 362.567 195.72 362.567 195.311C362.567 194.902 362.647 194.498 362.803 194.12C362.96 193.742 363.189 193.399 363.477 193.11C363.766 192.822 364.109 192.593 364.486 192.436C364.863 192.28 365.267 192.2 365.675 192.201H381.956C382.778 192.202 383.567 192.53 384.148 193.114C384.729 193.697 385.055 194.487 385.055 195.311C385.055 196.135 384.729 196.926 384.148 197.509C383.567 198.092 382.778 198.42 381.956 198.421Z" fill="#FF5300"/>
<path d="M309.336 68.9645H34.7031V210.015H309.336V68.9645Z" fill="#F2F2F2"/>
<path d="M300.182 75.9732H43.8577V203.006H300.182V75.9732Z" fill="white"/>
<path d="M268.392 183.626H81.5368C81.3817 183.626 81.233 183.564 81.1233 183.455C81.0136 183.345 80.952 183.196 80.952 183.04V93.2887C80.952 93.1333 81.0136 92.9842 81.1233 92.8743C81.233 92.7644 81.3817 92.7027 81.5368 92.7027C81.6919 92.7027 81.8406 92.7644 81.9503 92.8743C82.06 92.9842 82.1216 93.1333 82.1216 93.2887V182.454H268.392C268.547 182.454 268.696 182.516 268.806 182.626C268.915 182.736 268.977 182.885 268.977 183.04C268.977 183.196 268.915 183.345 268.806 183.455C268.696 183.564 268.547 183.626 268.392 183.626Z" fill="#3F3D56"/>
<path d="M121.46 177.18H104.464C104.004 177.179 103.563 176.996 103.238 176.67C102.912 176.344 102.729 175.902 102.729 175.44V151.962C102.729 151.501 102.912 151.059 103.238 150.733C103.563 150.407 104.004 150.223 104.464 150.223H121.46C121.92 150.223 122.361 150.407 122.686 150.733C123.012 151.059 123.195 151.501 123.196 151.962V175.44C123.195 175.902 123.012 176.344 122.686 176.67C122.361 176.996 121.92 177.179 121.46 177.18Z" fill="#FF5300"/>
<path d="M152.453 177.18H135.457C134.997 177.179 134.556 176.996 134.23 176.67C133.905 176.344 133.722 175.902 133.721 175.44V129.693C133.722 129.232 133.905 128.79 134.23 128.464C134.556 128.138 134.997 127.954 135.457 127.954H152.453C152.913 127.954 153.354 128.138 153.679 128.464C154.005 128.79 154.188 129.232 154.188 129.693V175.44C154.188 175.902 154.005 176.344 153.679 176.67C153.354 176.996 152.913 177.179 152.453 177.18Z" fill="#FF5300"/>
<path d="M183.445 177.18H166.45C165.99 177.179 165.549 176.996 165.223 176.67C164.898 176.344 164.715 175.902 164.714 175.44V151.962C164.715 151.501 164.898 151.059 165.223 150.733C165.549 150.407 165.99 150.223 166.45 150.223H183.445C183.906 150.223 184.347 150.407 184.672 150.733C184.998 151.059 185.181 151.501 185.181 151.962V175.44C185.181 175.902 184.998 176.344 184.672 176.67C184.347 176.996 183.906 177.179 183.445 177.18Z" fill="#FF5300"/>
<path d="M214.438 177.18H197.443C196.993 177.19 196.558 177.02 196.233 176.709C195.907 176.398 195.718 175.97 195.707 175.519V120.824C195.718 120.374 195.907 119.946 196.233 119.634C196.558 119.323 196.993 119.154 197.443 119.164H214.438C214.888 119.154 215.323 119.323 215.649 119.634C215.974 119.946 216.163 120.374 216.174 120.824V175.519C216.163 175.97 215.974 176.398 215.649 176.709C215.323 177.02 214.888 177.19 214.438 177.18Z" fill="#FF5300"/>
<path d="M245.431 177.18H228.436C227.976 177.179 227.535 176.996 227.209 176.67C226.884 176.344 226.701 175.902 226.7 175.44V105.08C226.701 104.619 226.884 104.177 227.209 103.851C227.535 103.525 227.976 103.342 228.436 103.341H245.431C245.892 103.342 246.333 103.525 246.658 103.851C246.984 104.177 247.167 104.619 247.167 105.08V175.44C247.167 175.902 246.984 176.344 246.658 176.67C246.333 176.996 245.892 177.179 245.431 177.18Z" fill="#FF5300"/>
<path d="M112.962 143.191C114.9 143.191 116.471 141.616 116.471 139.674C116.471 137.733 114.9 136.158 112.962 136.158C111.024 136.158 109.453 137.733 109.453 139.674C109.453 141.616 111.024 143.191 112.962 143.191Z" fill="#3F3D56"/>
<path d="M143.955 120.336C145.893 120.336 147.464 118.761 147.464 116.82C147.464 114.878 145.893 113.303 143.955 113.303C142.017 113.303 140.446 114.878 140.446 116.82C140.446 118.761 142.017 120.336 143.955 120.336Z" fill="#3F3D56"/>
<path d="M174.948 143.191C176.886 143.191 178.457 141.616 178.457 139.674C178.457 137.733 176.886 136.158 174.948 136.158C173.01 136.158 171.439 137.733 171.439 139.674C171.439 141.616 173.01 143.191 174.948 143.191Z" fill="#3F3D56"/>
<path d="M205.941 109.201C207.879 109.201 209.45 107.627 209.45 105.685C209.45 103.743 207.879 102.169 205.941 102.169C204.003 102.169 202.432 103.743 202.432 105.685C202.432 107.627 204.003 109.201 205.941 109.201Z" fill="#3F3D56"/>
<path d="M236.934 96.3087C238.872 96.3087 240.442 94.7345 240.442 92.7926C240.442 90.8507 238.872 89.2764 236.934 89.2764C234.996 89.2764 233.425 90.8507 233.425 92.7926C233.425 94.7345 234.996 96.3087 236.934 96.3087Z" fill="#3F3D56"/>
<path d="M175.022 140.462L143.955 117.143L113.313 140.143L112.612 139.206L143.955 115.678L174.874 138.886L205.599 105.192L205.722 105.141L236.715 92.6274L237.152 93.7145L206.283 106.179L175.022 140.462Z" fill="#3F3D56"/>
<path d="M638.322 429H380.023C379.843 429 379.671 428.928 379.544 428.801C379.417 428.674 379.345 428.501 379.345 428.321C379.345 428.14 379.417 427.968 379.544 427.84C379.671 427.713 379.843 427.641 380.023 427.641H638.322C638.502 427.641 638.674 427.713 638.801 427.84C638.929 427.968 639 428.14 639 428.321C639 428.501 638.929 428.674 638.801 428.801C638.674 428.928 638.502 429 638.322 429Z" fill="#CCCCCC"/>
</g>
<defs>
<clipPath id="clip0_124_0">
<rect width="639" height="429" fill="white"/>
</clipPath>
</defs>
</svg>
