<svg width="518" height="352" viewBox="0 0 518 352" fill="none" xmlns="http://www.w3.org/2000/svg">
<path d="M130.858 43.7435C133.583 43.7435 135.792 41.5389 135.792 38.8193C135.792 36.0997 133.583 33.895 130.858 33.895C128.134 33.895 125.925 36.0997 125.925 38.8193C125.925 41.5389 128.134 43.7435 130.858 43.7435Z" fill="#F2F2F2"/>
<path d="M111.198 43.7435C113.923 43.7435 116.131 41.5389 116.131 38.8193C116.131 36.0997 113.923 33.895 111.198 33.895C108.474 33.895 106.265 36.0997 106.265 38.8193C106.265 41.5389 108.474 43.7435 111.198 43.7435Z" fill="#F2F2F2"/>
<path d="M91.5378 43.7435C94.2623 43.7435 96.4709 41.5389 96.4709 38.8193C96.4709 36.0997 94.2623 33.895 91.5378 33.895C88.8133 33.895 86.6047 36.0997 86.6047 38.8193C86.6047 41.5389 88.8133 43.7435 91.5378 43.7435Z" fill="#F2F2F2"/>
<path d="M71.8774 43.7435C74.6018 43.7435 76.8105 41.5389 76.8105 38.8193C76.8105 36.0997 74.6018 33.895 71.8774 33.895C69.1529 33.895 66.9443 36.0997 66.9443 38.8193C66.9443 41.5389 69.1529 43.7435 71.8774 43.7435Z" fill="#F2F2F2"/>
<path d="M130.858 64.3029C133.583 64.3029 135.792 62.0982 135.792 59.3786C135.792 56.659 133.583 54.4543 130.858 54.4543C128.134 54.4543 125.925 56.659 125.925 59.3786C125.925 62.0982 128.134 64.3029 130.858 64.3029Z" fill="#F2F2F2"/>
<path d="M111.198 64.3029C113.923 64.3029 116.131 62.0982 116.131 59.3786C116.131 56.659 113.923 54.4543 111.198 54.4543C108.474 54.4543 106.265 56.659 106.265 59.3786C106.265 62.0982 108.474 64.3029 111.198 64.3029Z" fill="#F2F2F2"/>
<path d="M91.5378 64.3029C94.2623 64.3029 96.4709 62.0982 96.4709 59.3786C96.4709 56.659 94.2623 54.4543 91.5378 54.4543C88.8133 54.4543 86.6047 56.659 86.6047 59.3786C86.6047 62.0982 88.8133 64.3029 91.5378 64.3029Z" fill="#F2F2F2"/>
<path d="M71.8774 64.3029C74.6018 64.3029 76.8105 62.0982 76.8105 59.3786C76.8105 56.659 74.6018 54.4543 71.8774 54.4543C69.1529 54.4543 66.9443 56.659 66.9443 59.3786C66.9443 62.0982 69.1529 64.3029 71.8774 64.3029Z" fill="#F2F2F2"/>
<path d="M130.858 84.8622C133.583 84.8622 135.792 82.6575 135.792 79.9379C135.792 77.2183 133.583 75.0137 130.858 75.0137C128.134 75.0137 125.925 77.2183 125.925 79.9379C125.925 82.6575 128.134 84.8622 130.858 84.8622Z" fill="#F2F2F2"/>
<path d="M111.198 84.8622C113.923 84.8622 116.131 82.6575 116.131 79.9379C116.131 77.2183 113.923 75.0137 111.198 75.0137C108.474 75.0137 106.265 77.2183 106.265 79.9379C106.265 82.6575 108.474 84.8622 111.198 84.8622Z" fill="#F2F2F2"/>
<path d="M91.5378 84.8622C94.2623 84.8622 96.4709 82.6575 96.4709 79.9379C96.4709 77.2183 94.2623 75.0137 91.5378 75.0137C88.8133 75.0137 86.6047 77.2183 86.6047 79.9379C86.6047 82.6575 88.8133 84.8622 91.5378 84.8622Z" fill="#F2F2F2"/>
<path d="M71.8774 84.8622C74.6018 84.8622 76.8105 82.6575 76.8105 79.9379C76.8105 77.2183 74.6018 75.0137 71.8774 75.0137C69.1529 75.0137 66.9443 77.2183 66.9443 79.9379C66.9443 82.6575 69.1529 84.8622 71.8774 84.8622Z" fill="#F2F2F2"/>
<path d="M130.858 105.422C133.583 105.422 135.792 103.217 135.792 100.497C135.792 97.7777 133.583 95.573 130.858 95.573C128.134 95.573 125.925 97.7777 125.925 100.497C125.925 103.217 128.134 105.422 130.858 105.422Z" fill="#F2F2F2"/>
<path d="M111.198 105.422C113.923 105.422 116.131 103.217 116.131 100.497C116.131 97.7777 113.923 95.573 111.198 95.573C108.474 95.573 106.265 97.7777 106.265 100.497C106.265 103.217 108.474 105.422 111.198 105.422Z" fill="#F2F2F2"/>
<path d="M91.5378 105.422C94.2623 105.422 96.4709 103.217 96.4709 100.497C96.4709 97.7777 94.2623 95.573 91.5378 95.573C88.8133 95.573 86.6047 97.7777 86.6047 100.497C86.6047 103.217 88.8133 105.422 91.5378 105.422Z" fill="#F2F2F2"/>
<path d="M71.8774 105.422C74.6018 105.422 76.8105 103.217 76.8105 100.497C76.8105 97.7777 74.6018 95.573 71.8774 95.573C69.1529 95.573 66.9443 97.7777 66.9443 100.497C66.9443 103.217 69.1529 105.422 71.8774 105.422Z" fill="#F2F2F2"/>
<path d="M130.858 125.981C133.583 125.981 135.792 123.776 135.792 121.057C135.792 118.337 133.583 116.132 130.858 116.132C128.134 116.132 125.925 118.337 125.925 121.057C125.925 123.776 128.134 125.981 130.858 125.981Z" fill="#F2F2F2"/>
<path d="M111.198 125.981C113.923 125.981 116.131 123.776 116.131 121.057C116.131 118.337 113.923 116.132 111.198 116.132C108.474 116.132 106.265 118.337 106.265 121.057C106.265 123.776 108.474 125.981 111.198 125.981Z" fill="#F2F2F2"/>
<path d="M91.5378 125.981C94.2623 125.981 96.4709 123.776 96.4709 121.057C96.4709 118.337 94.2623 116.132 91.5378 116.132C88.8133 116.132 86.6047 118.337 86.6047 121.057C86.6047 123.776 88.8133 125.981 91.5378 125.981Z" fill="#F2F2F2"/>
<path d="M71.8774 125.981C74.6018 125.981 76.8105 123.776 76.8105 121.057C76.8105 118.337 74.6018 116.132 71.8774 116.132C69.1529 116.132 66.9443 118.337 66.9443 121.057C66.9443 123.776 69.1529 125.981 71.8774 125.981Z" fill="#F2F2F2"/>
<path d="M130.858 146.54C133.583 146.54 135.792 144.336 135.792 141.616C135.792 138.896 133.583 136.692 130.858 136.692C128.134 136.692 125.925 138.896 125.925 141.616C125.925 144.336 128.134 146.54 130.858 146.54Z" fill="#F2F2F2"/>
<path d="M111.198 146.54C113.923 146.54 116.131 144.336 116.131 141.616C116.131 138.896 113.923 136.692 111.198 136.692C108.474 136.692 106.265 138.896 106.265 141.616C106.265 144.336 108.474 146.54 111.198 146.54Z" fill="#F2F2F2"/>
<path d="M91.5378 146.54C94.2623 146.54 96.4709 144.336 96.4709 141.616C96.4709 138.896 94.2623 136.692 91.5378 136.692C88.8133 136.692 86.6047 138.896 86.6047 141.616C86.6047 144.336 88.8133 146.54 91.5378 146.54Z" fill="#F2F2F2"/>
<path d="M71.8774 146.54C74.6018 146.54 76.8105 144.336 76.8105 141.616C76.8105 138.896 74.6018 136.692 71.8774 136.692C69.1529 136.692 66.9443 138.896 66.9443 141.616C66.9443 144.336 69.1529 146.54 71.8774 146.54Z" fill="#F2F2F2"/>
<path d="M87.5112 275.952V277.475C87.5134 279.998 88.5188 282.418 90.3065 284.203C92.0942 285.987 94.5182 286.991 97.0465 286.993H165.7C168.229 286.992 170.653 285.989 172.441 284.204C174.229 282.419 175.234 279.999 175.235 277.475V275.952C175.24 273.724 174.456 271.567 173.023 269.86C172.546 269.293 172.006 268.783 171.413 268.337C171.413 268.337 133.669 267.484 133.669 266.434H97.0465C94.5186 266.437 92.0953 267.441 90.3079 269.225C88.5205 271.01 87.5147 273.429 87.5112 275.952Z" fill="#CCCCCC"/>
<path d="M136.884 286.615H126.967V350.577H136.884V286.615Z" fill="#CCCCCC"/>
<path d="M165.108 350.23C165.108 351.299 150.081 350.643 131.544 350.643C113.007 350.643 97.9799 351.299 97.9799 350.23C97.9799 349.16 113.007 340.678 131.544 340.678C150.081 340.678 165.108 349.16 165.108 350.23Z" fill="#CCCCCC"/>
<path d="M151.474 274.66C152.19 273.701 152.686 272.597 152.929 271.426C153.171 270.255 153.153 269.045 152.876 267.882C152.599 266.718 152.07 265.629 151.326 264.692C150.582 263.755 149.641 262.992 148.57 262.457L127.552 190.967L111.547 198.792L137.24 266.603C136.459 268.459 136.387 270.537 137.038 272.443C137.688 274.348 139.017 275.95 140.772 276.943C142.526 277.936 144.585 278.252 146.557 277.831C148.53 277.411 150.279 276.282 151.474 274.66L151.474 274.66Z" fill="#A0616A"/>
<path d="M132.314 202.906L114.401 207.746C113.891 207.884 113.358 207.91 112.837 207.824C112.316 207.737 111.82 207.539 111.382 207.244C110.945 206.949 110.576 206.563 110.302 206.113C110.027 205.663 109.853 205.159 109.791 204.635L107.626 186.294C106.935 183.687 107.308 180.913 108.663 178.58C110.018 176.247 112.244 174.545 114.854 173.848C117.463 173.151 120.244 173.516 122.584 174.861C124.925 176.207 126.636 178.425 127.342 181.028L134.721 197.899C134.932 198.382 135.037 198.905 135.027 199.432C135.018 199.959 134.894 200.477 134.666 200.953C134.437 201.428 134.109 201.848 133.703 202.185C133.297 202.522 132.823 202.768 132.314 202.906H132.314Z" fill="#FF5300"/>
<path d="M156.156 342.733L165.508 342.732L169.957 318.521H156.154L156.156 342.733Z" fill="#A0616A"/>
<path d="M153.77 339.685L172.187 339.684H172.188C173.729 339.684 175.256 339.987 176.68 340.576C178.104 341.164 179.398 342.027 180.488 343.115C181.577 344.203 182.442 345.495 183.032 346.916C183.622 348.338 183.925 349.861 183.925 351.4V351.781L153.771 351.782L153.77 339.685Z" fill="#2F2E41"/>
<path d="M167.011 329.749C166.902 329.749 166.792 329.744 166.683 329.733L153.74 328.793C153.217 328.744 152.712 328.576 152.263 328.302C151.815 328.028 151.436 327.655 151.155 327.211C150.875 326.768 150.7 326.266 150.644 325.744C150.588 325.222 150.654 324.694 150.834 324.202L168.155 285.356C168.279 285.01 168.33 284.642 168.304 284.275C168.278 283.908 168.177 283.551 168.006 283.225C167.835 282.896 167.597 282.606 167.306 282.375C167.015 282.144 166.679 281.977 166.319 281.885C158.174 279.76 137.277 274.101 119.187 267.48C111.437 264.643 106.556 260.543 104.679 255.295C102.205 248.376 105.865 242.066 106.022 241.801L106.145 241.593L123.167 243.138L141.62 244.705L182.06 266.351C185.449 268.18 188.023 271.216 189.269 274.855C190.516 278.493 190.344 282.467 188.787 285.985L170.143 327.718C169.873 328.323 169.434 328.836 168.878 329.197C168.322 329.557 167.674 329.749 167.011 329.749Z" fill="#2F2E41"/>
<path d="M126.127 166.285C136.474 166.285 144.862 157.911 144.862 147.582C144.862 137.254 136.474 128.88 126.127 128.88C115.779 128.88 107.391 137.254 107.391 147.582C107.391 157.911 115.779 166.285 126.127 166.285Z" fill="#A0616A"/>
<path d="M150.816 341.971L160.168 341.97L164.618 317.759H150.814L150.816 341.971Z" fill="#A0616A"/>
<path d="M148.43 338.923L166.848 338.922H166.848C168.39 338.922 169.916 339.225 171.34 339.814C172.764 340.403 174.058 341.266 175.148 342.354C176.238 343.442 177.102 344.733 177.692 346.155C178.282 347.576 178.585 349.1 178.585 350.638V351.019L148.431 351.02L148.43 338.923Z" fill="#2F2E41"/>
<path d="M161.671 332.034C161.562 332.034 161.453 332.028 161.343 332.018L148.401 331.077C147.877 331.029 147.372 330.861 146.924 330.587C146.476 330.312 146.096 329.939 145.816 329.496C145.535 329.052 145.36 328.55 145.304 328.028C145.249 327.506 145.314 326.979 145.495 326.486L162.816 287.641C162.939 287.294 162.99 286.926 162.964 286.559C162.938 286.193 162.837 285.835 162.666 285.51C162.495 285.18 162.257 284.89 161.966 284.659C161.676 284.428 161.339 284.261 160.979 284.17C152.834 282.044 131.937 276.385 113.847 269.764C106.097 266.927 101.216 262.828 99.3396 257.579C96.8657 250.66 100.526 244.35 100.683 244.085L100.805 243.878L117.827 245.422L136.281 246.989L176.72 268.635C180.109 270.465 182.683 273.501 183.929 277.139C185.176 280.778 185.004 284.752 183.447 288.269L164.803 330.003C164.534 330.607 164.094 331.121 163.538 331.481C162.983 331.841 162.334 332.033 161.671 332.034Z" fill="#2F2E41"/>
<path d="M131.905 176.89L112.072 170.036C112.072 170.036 99.621 179.585 105.602 203.273C108.725 215.497 107.815 228.4 103.009 240.067C102.43 241.51 101.763 242.917 101.011 244.278C101.011 244.278 123.133 270.929 143.729 251.132L135.719 212.678C135.719 212.678 148.306 187.169 131.905 176.89Z" fill="#2F2E41"/>
<path d="M128.453 166.921C125.786 162.937 123.682 157.412 126.618 153.621C129.516 149.879 135.232 150.431 139.67 148.775C145.852 146.469 149.437 139.219 148.319 132.727C147.201 126.234 141.98 120.852 135.76 118.65C129.54 116.448 122.526 117.164 116.435 119.7C108.937 122.822 102.505 128.86 99.8084 136.51C97.1113 144.16 98.5531 153.344 104.148 159.224C110.147 165.528 119.561 167.207 128.271 167.106" fill="#2F2E41"/>
<path d="M111.025 132.935C107.665 135.665 102.538 134.453 98.9315 132.056C95.3246 129.66 92.3979 126.248 88.4954 124.369C81.6153 121.057 73.2971 123.258 66.6012 126.927C59.9052 130.596 53.9696 135.665 46.8966 138.544C39.8237 141.424 30.7982 141.566 25.4425 136.129C24.1245 139.941 24.0168 144.066 25.134 147.941C26.2512 151.816 28.5389 155.253 31.685 157.782C34.8311 160.311 38.6823 161.81 42.7133 162.074C46.7442 162.338 50.7585 161.354 54.2085 159.256C61.9582 154.544 66.2389 144.664 74.9311 142.063C79.7411 140.623 84.906 141.783 89.7673 143.038C94.6286 144.294 99.6975 145.65 104.603 144.581C109.509 143.513 114.098 139.112 113.474 134.138L111.025 132.935Z" fill="#2F2E41"/>
<path d="M172.015 309.157C170.031 296.294 170.031 283.204 172.015 270.341C172.141 269.576 172.535 268.879 173.127 268.377C173.718 267.874 174.47 267.597 175.247 267.595H205.663C206.155 267.594 206.642 267.705 207.086 267.919C207.529 268.134 207.918 268.447 208.222 268.834C208.533 269.226 208.75 269.684 208.857 270.173C208.963 270.662 208.957 271.169 208.838 271.655C205.993 283.55 205.993 295.947 208.838 307.843C208.957 308.329 208.963 308.836 208.857 309.324C208.75 309.813 208.533 310.271 208.222 310.664C207.918 311.051 207.529 311.364 207.086 311.578C206.642 311.793 206.155 311.904 205.663 311.902H175.247C174.47 311.901 173.718 311.624 173.127 311.121C172.535 310.618 172.141 309.922 172.015 309.157Z" fill="#FF5300"/>
<path d="M196.303 286.386H180.342C179.735 286.385 179.153 286.144 178.724 285.716C178.295 285.287 178.054 284.707 178.053 284.101V283.209C178.054 282.603 178.295 282.023 178.724 281.594C179.153 281.166 179.735 280.925 180.342 280.924H196.303C196.91 280.925 197.491 281.166 197.92 281.594C198.349 282.023 198.591 282.603 198.591 283.209V284.101C198.591 284.707 198.349 285.287 197.92 285.716C197.491 286.144 196.91 286.385 196.303 286.386Z" fill="white"/>
<path d="M196.303 295.786H180.342C179.735 295.785 179.153 295.544 178.724 295.116C178.295 294.687 178.054 294.107 178.053 293.501V292.608C178.054 292.003 178.295 291.422 178.724 290.994C179.153 290.566 179.735 290.325 180.342 290.324H196.303C196.91 290.325 197.491 290.566 197.92 290.994C198.349 291.422 198.591 292.003 198.591 292.608V293.501C198.591 294.107 198.349 294.687 197.92 295.116C197.491 295.544 196.91 295.785 196.303 295.786Z" fill="white"/>
<path d="M180.013 271.234C180.466 270.127 180.671 268.934 180.612 267.74C180.554 266.545 180.234 265.378 179.674 264.321C179.115 263.263 178.33 262.341 177.375 261.619C176.42 260.897 175.318 260.393 174.147 260.142L135.903 196.161L122.364 207.729L164.214 266.982C163.922 268.975 164.372 271.005 165.48 272.687C166.587 274.37 168.274 275.589 170.222 276.113C172.169 276.637 174.242 276.43 176.046 275.531C177.851 274.632 179.262 273.103 180.013 271.234L180.013 271.234Z" fill="#A0616A"/>
<path d="M143.501 206.534L127.368 215.688C126.909 215.949 126.399 216.107 125.873 216.153C125.347 216.199 124.817 216.132 124.32 215.955C123.822 215.778 123.369 215.496 122.99 215.129C122.612 214.761 122.317 214.317 122.126 213.825L115.439 196.605C114.118 194.253 113.785 191.474 114.513 188.878C115.241 186.281 116.97 184.078 119.323 182.752C121.675 181.427 124.458 181.086 127.062 181.805C129.665 182.525 131.877 184.245 133.211 186.59L144.579 201.085C144.905 201.5 145.137 201.98 145.259 202.493C145.382 203.006 145.393 203.539 145.29 204.056C145.188 204.573 144.975 205.062 144.666 205.49C144.358 205.917 143.96 206.273 143.501 206.534Z" fill="#2F2E41"/>
<path d="M315.166 229.008H5.46198C4.14695 229.008 2.88579 229.529 1.95592 230.457C1.02606 231.386 0.503662 232.645 0.503662 233.957C0.503662 235.27 1.02606 236.529 1.95592 237.457C2.88579 238.385 4.14695 238.907 5.46198 238.907H14.2344V346.653C14.2344 347.966 14.7568 349.225 15.6866 350.153C16.6165 351.081 17.8777 351.602 19.1927 351.602C20.5077 351.602 21.7689 351.081 22.6988 350.153C23.6286 349.225 24.151 347.966 24.151 346.653V248.417L79.7384 348.989C80.3974 350.123 81.4801 350.95 82.749 351.288C84.0179 351.626 85.3693 351.448 86.5066 350.792C87.644 350.137 88.4744 349.057 88.8155 347.792C89.1567 346.526 88.9808 345.176 88.3265 344.04L30.2182 238.907H295.714V238.971L237.642 344.04C236.984 345.176 236.806 346.527 237.146 347.795C237.487 349.063 238.318 350.144 239.456 350.8C240.595 351.457 241.949 351.635 243.219 351.295C244.489 350.955 245.572 350.126 246.229 348.989L295.714 259.458V346.653C295.714 347.966 296.237 349.225 297.167 350.153C298.096 351.081 299.358 351.602 300.673 351.602C301.988 351.602 303.249 351.081 304.179 350.153C305.108 349.225 305.631 347.966 305.631 346.653V241.517L307.073 238.907H315.166C316.481 238.907 317.742 238.385 318.672 237.457C319.602 236.529 320.124 235.27 320.124 233.957C320.124 232.645 319.602 231.386 318.672 230.457C317.742 229.529 316.481 229.008 315.166 229.008Z" fill="#3F3D56"/>
<path d="M187.013 225.962H126.75C125.275 225.962 124.08 227.155 124.08 228.627C124.08 230.099 125.275 231.292 126.75 231.292H187.013C188.487 231.292 189.682 230.099 189.682 228.627C189.682 227.155 188.487 225.962 187.013 225.962Z" fill="#CCCCCC"/>
<path d="M227.442 231.292H159.551C158.237 231.291 156.976 230.769 156.047 229.841C155.117 228.913 154.594 227.655 154.593 226.343V189.031C154.594 187.719 155.117 186.461 156.047 185.533C156.976 184.605 158.237 184.083 159.551 184.082H227.442C228.756 184.083 230.017 184.605 230.946 185.533C231.876 186.461 232.399 187.719 232.4 189.031V226.343C232.399 227.655 231.876 228.913 230.946 229.841C230.017 230.769 228.756 231.291 227.442 231.292Z" fill="#CCCCCC"/>
<path d="M193.496 212.256C196.024 212.256 198.073 210.21 198.073 207.687C198.073 205.164 196.024 203.118 193.496 203.118C190.969 203.118 188.92 205.164 188.92 207.687C188.92 210.21 190.969 212.256 193.496 212.256Z" fill="white"/>
<path d="M279.253 139.363V5.72724C279.255 4.20881 279.86 2.75307 280.935 1.67937C282.011 0.605681 283.469 0.00172717 284.991 0H390.815C392.336 0.00172717 393.795 0.605681 394.87 1.67937C395.946 2.75307 396.551 4.20881 396.553 5.72724V139.363C396.551 140.881 395.946 142.337 394.87 143.411C393.795 144.485 392.336 145.088 390.815 145.09H284.991C283.469 145.088 282.011 144.485 280.935 143.411C279.86 142.337 279.255 140.881 279.253 139.363ZM284.991 1.27272C283.807 1.27405 282.673 1.74379 281.837 2.57889C281 3.41399 280.529 4.54623 280.528 5.72724V139.363C280.529 140.544 281 141.676 281.837 142.511C282.673 143.346 283.807 143.816 284.991 143.817H390.815C391.998 143.816 393.133 143.346 393.969 142.511C394.806 141.676 395.276 140.544 395.278 139.363V5.72724C395.276 4.54623 394.806 3.41399 393.969 2.57889C393.133 1.74379 391.998 1.27405 390.815 1.27272H284.991Z" fill="#E6E6E6"/>
<path d="M343.837 61.3717V33.932C343.838 33.1728 344.14 32.4449 344.678 31.9081C345.216 31.3712 345.945 31.0693 346.706 31.0684H370C370.761 31.0693 371.49 31.3712 372.028 31.9081C372.565 32.4449 372.868 33.1728 372.869 33.932V61.3717C372.868 62.1309 372.565 62.8588 372.028 63.3956C371.49 63.9325 370.761 64.2344 370 64.2353H346.706C345.945 64.2344 345.216 63.9325 344.678 63.3956C344.14 62.8588 343.838 62.1309 343.837 61.3717Z" fill="#FF5300"/>
<path d="M298.575 74.0989V46.6593C298.576 45.9001 298.878 45.1722 299.416 44.6353C299.954 44.0985 300.683 43.7965 301.443 43.7957H324.738C325.498 43.7965 326.227 44.0985 326.765 44.6353C327.303 45.1722 327.606 45.9001 327.606 46.6593V74.0989C327.606 74.8581 327.303 75.586 326.765 76.1229C326.227 76.6597 325.498 76.9617 324.738 76.9625H301.443C300.683 76.9617 299.954 76.6597 299.416 76.1229C298.878 75.586 298.576 74.8581 298.575 74.0989Z" fill="#CCCCCC"/>
<path d="M334.912 112.917V85.4772C334.913 84.718 335.216 83.9901 335.753 83.4533C336.291 82.9164 337.02 82.6144 337.781 82.6136H361.075C361.836 82.6144 362.565 82.9164 363.103 83.4533C363.641 83.9901 363.943 84.718 363.944 85.4772V112.917C363.943 113.676 363.641 114.404 363.103 114.941C362.565 115.478 361.836 115.78 361.075 115.78H337.781C337.02 115.78 336.291 115.478 335.753 114.941C335.216 114.404 334.913 113.676 334.912 112.917Z" fill="#FF6584"/>
<path d="M512.563 13.9249C515.288 13.9249 517.496 11.7202 517.496 9.00061C517.496 6.28102 515.288 4.07635 512.563 4.07635C509.839 4.07635 507.63 6.28102 507.63 9.00061C507.63 11.7202 509.839 13.9249 512.563 13.9249Z" fill="#F2F2F2"/>
<path d="M512.563 33.5502C515.288 33.5502 517.496 31.3455 517.496 28.6259C517.496 25.9063 515.288 23.7017 512.563 23.7017C509.839 23.7017 507.63 25.9063 507.63 28.6259C507.63 31.3455 509.839 33.5502 512.563 33.5502Z" fill="#F2F2F2"/>
<path d="M512.563 53.1754C515.288 53.1754 517.496 50.9708 517.496 48.2512C517.496 45.5316 515.288 43.3269 512.563 43.3269C509.839 43.3269 507.63 45.5316 507.63 48.2512C507.63 50.9708 509.839 53.1754 512.563 53.1754Z" fill="#F2F2F2"/>
<path d="M512.563 72.8007C515.288 72.8007 517.496 70.596 517.496 67.8764C517.496 65.1568 515.288 62.9521 512.563 62.9521C509.839 62.9521 507.63 65.1568 507.63 67.8764C507.63 70.596 509.839 72.8007 512.563 72.8007Z" fill="#F2F2F2"/>
<path d="M491.967 13.9249C494.692 13.9249 496.9 11.7202 496.9 9.00061C496.9 6.28102 494.692 4.07635 491.967 4.07635C489.243 4.07635 487.034 6.28102 487.034 9.00061C487.034 11.7202 489.243 13.9249 491.967 13.9249Z" fill="#F2F2F2"/>
<path d="M491.967 33.5502C494.692 33.5502 496.9 31.3455 496.9 28.6259C496.9 25.9063 494.692 23.7017 491.967 23.7017C489.243 23.7017 487.034 25.9063 487.034 28.6259C487.034 31.3455 489.243 33.5502 491.967 33.5502Z" fill="#F2F2F2"/>
<path d="M491.967 53.1754C494.692 53.1754 496.9 50.9708 496.9 48.2512C496.9 45.5316 494.692 43.3269 491.967 43.3269C489.243 43.3269 487.034 45.5316 487.034 48.2512C487.034 50.9708 489.243 53.1754 491.967 53.1754Z" fill="#F2F2F2"/>
<path d="M491.967 72.8007C494.692 72.8007 496.9 70.596 496.9 67.8764C496.9 65.1568 494.692 62.9521 491.967 62.9521C489.243 62.9521 487.034 65.1568 487.034 67.8764C487.034 70.596 489.243 72.8007 491.967 72.8007Z" fill="#F2F2F2"/>
<path d="M471.371 13.9249C474.096 13.9249 476.304 11.7202 476.304 9.00061C476.304 6.28102 474.096 4.07635 471.371 4.07635C468.647 4.07635 466.438 6.28102 466.438 9.00061C466.438 11.7202 468.647 13.9249 471.371 13.9249Z" fill="#F2F2F2"/>
<path d="M471.371 33.5502C474.096 33.5502 476.304 31.3455 476.304 28.6259C476.304 25.9063 474.096 23.7017 471.371 23.7017C468.647 23.7017 466.438 25.9063 466.438 28.6259C466.438 31.3455 468.647 33.5502 471.371 33.5502Z" fill="#F2F2F2"/>
<path d="M471.371 53.1754C474.096 53.1754 476.304 50.9708 476.304 48.2512C476.304 45.5316 474.096 43.3269 471.371 43.3269C468.647 43.3269 466.438 45.5316 466.438 48.2512C466.438 50.9708 468.647 53.1754 471.371 53.1754Z" fill="#F2F2F2"/>
<path d="M471.371 72.8007C474.096 72.8007 476.304 70.596 476.304 67.8764C476.304 65.1568 474.096 62.9521 471.371 62.9521C468.647 62.9521 466.438 65.1568 466.438 67.8764C466.438 70.596 468.647 72.8007 471.371 72.8007Z" fill="#F2F2F2"/>
<path d="M450.775 13.9249C453.5 13.9249 455.708 11.7202 455.708 9.00061C455.708 6.28102 453.5 4.07635 450.775 4.07635C448.051 4.07635 445.842 6.28102 445.842 9.00061C445.842 11.7202 448.051 13.9249 450.775 13.9249Z" fill="#F2F2F2"/>
<path d="M450.775 33.5502C453.5 33.5502 455.708 31.3455 455.708 28.6259C455.708 25.9063 453.5 23.7017 450.775 23.7017C448.051 23.7017 445.842 25.9063 445.842 28.6259C445.842 31.3455 448.051 33.5502 450.775 33.5502Z" fill="#F2F2F2"/>
<path d="M450.775 53.1754C453.5 53.1754 455.708 50.9708 455.708 48.2512C455.708 45.5316 453.5 43.3269 450.775 43.3269C448.051 43.3269 445.842 45.5316 445.842 48.2512C445.842 50.9708 448.051 53.1754 450.775 53.1754Z" fill="#F2F2F2"/>
<path d="M450.775 72.8007C453.5 72.8007 455.708 70.596 455.708 67.8764C455.708 65.1568 453.5 62.9521 450.775 62.9521C448.051 62.9521 445.842 65.1568 445.842 67.8764C445.842 70.596 448.051 72.8007 450.775 72.8007Z" fill="#F2F2F2"/>
<path d="M430.179 13.9249C432.904 13.9249 435.112 11.7202 435.112 9.00061C435.112 6.28102 432.904 4.07635 430.179 4.07635C427.455 4.07635 425.246 6.28102 425.246 9.00061C425.246 11.7202 427.455 13.9249 430.179 13.9249Z" fill="#F2F2F2"/>
<path d="M430.179 33.5502C432.904 33.5502 435.112 31.3455 435.112 28.6259C435.112 25.9063 432.904 23.7017 430.179 23.7017C427.455 23.7017 425.246 25.9063 425.246 28.6259C425.246 31.3455 427.455 33.5502 430.179 33.5502Z" fill="#F2F2F2"/>
<path d="M430.179 53.1754C432.904 53.1754 435.112 50.9708 435.112 48.2512C435.112 45.5316 432.904 43.3269 430.179 43.3269C427.455 43.3269 425.246 45.5316 425.246 48.2512C425.246 50.9708 427.455 53.1754 430.179 53.1754Z" fill="#F2F2F2"/>
<path d="M430.179 72.8007C432.904 72.8007 435.112 70.596 435.112 67.8764C435.112 65.1568 432.904 62.9521 430.179 62.9521C427.455 62.9521 425.246 65.1568 425.246 67.8764C425.246 70.596 427.455 72.8007 430.179 72.8007Z" fill="#F2F2F2"/>
<path d="M409.583 13.9249C412.307 13.9249 414.516 11.7202 414.516 9.00061C414.516 6.28102 412.307 4.07635 409.583 4.07635C406.858 4.07635 404.65 6.28102 404.65 9.00061C404.65 11.7202 406.858 13.9249 409.583 13.9249Z" fill="#F2F2F2"/>
<path d="M409.583 33.5502C412.307 33.5502 414.516 31.3455 414.516 28.6259C414.516 25.9063 412.307 23.7017 409.583 23.7017C406.858 23.7017 404.65 25.9063 404.65 28.6259C404.65 31.3455 406.858 33.5502 409.583 33.5502Z" fill="#F2F2F2"/>
<path d="M409.583 53.1754C412.307 53.1754 414.516 50.9708 414.516 48.2512C414.516 45.5316 412.307 43.3269 409.583 43.3269C406.858 43.3269 404.65 45.5316 404.65 48.2512C404.65 50.9708 406.858 53.1754 409.583 53.1754Z" fill="#F2F2F2"/>
<path d="M409.583 72.8007C412.307 72.8007 414.516 70.596 414.516 67.8764C414.516 65.1568 412.307 62.9521 409.583 62.9521C406.858 62.9521 404.65 65.1568 404.65 67.8764C404.65 70.596 406.858 72.8007 409.583 72.8007Z" fill="#F2F2F2"/>
<path d="M429.457 183.703C429.052 182.594 428.887 181.412 428.972 180.235C429.057 179.058 429.39 177.912 429.949 176.872C430.509 175.832 431.282 174.922 432.218 174.201C433.154 173.481 434.233 172.965 435.382 172.69C435.747 172.604 436.117 172.544 436.489 172.51L455.028 140.073L450.347 132.045L461.999 123.072L470.914 135.431C471.977 136.917 472.532 138.706 472.496 140.531C472.461 142.357 471.836 144.122 470.716 145.565L445.264 178.09C445.357 178.349 445.436 178.612 445.501 178.878C445.777 180.026 445.807 181.219 445.589 182.379C445.371 183.539 444.91 184.64 444.236 185.61C443.562 186.58 442.69 187.397 441.678 188.007C440.665 188.617 439.535 189.006 438.361 189.15C438.021 189.193 437.678 189.214 437.334 189.214C435.614 189.209 433.938 188.678 432.53 187.692C431.121 186.707 430.049 185.315 429.457 183.703Z" fill="#FFB8B8"/>
<path d="M393.288 343.332L383.936 343.331L379.487 307.323L393.29 307.324L393.288 343.332Z" fill="#FFB8B8"/>
<path d="M377.256 340.664H395.292V351.999H365.9C365.9 350.511 366.194 349.037 366.765 347.661C367.335 346.286 368.172 345.036 369.226 343.984C370.281 342.931 371.533 342.096 372.91 341.527C374.288 340.957 375.765 340.664 377.256 340.664Z" fill="#2F2E41"/>
<path d="M470.333 343.332L460.981 343.331L456.532 307.323L470.334 307.324L470.333 343.332Z" fill="#FFB8B8"/>
<path d="M454.301 340.664H472.337V351.999H442.945C442.945 350.511 443.239 349.037 443.809 347.661C444.38 346.286 445.216 345.036 446.271 343.984C447.325 342.931 448.577 342.096 449.955 341.527C451.333 340.957 452.81 340.664 454.301 340.664Z" fill="#2F2E41"/>
<path d="M464.593 124.825L443.597 132.789L438.47 118.575C437.79 116.688 437.799 114.621 438.498 112.74C439.196 110.859 440.538 109.285 442.286 108.296C444.055 107.296 446.123 106.96 448.119 107.348C450.114 107.737 451.904 108.825 453.166 110.416L464.593 124.825Z" fill="#FF5300"/>
<path d="M394.096 314.168L376.486 310.159C375.55 309.944 374.73 309.384 374.19 308.59C373.651 307.796 373.432 306.828 373.579 305.88C380.644 261.176 387.442 234.996 404.961 201.749C405.206 201.129 407.941 188.547 409.726 180.211C409.706 179.293 410.021 178.398 410.612 177.695C411.204 176.991 412.031 176.526 412.941 176.386L445.776 171.342C446.271 171.17 446.794 171.092 447.318 171.11L447.646 171.172L447.642 171.494C447.638 171.828 447.306 171.878 447.181 171.898L446.744 171.965C447.242 172.196 447.699 172.506 448.098 172.883C462.485 190.156 469.966 246.775 479.468 309.325C479.52 309.833 479.458 310.346 479.286 310.826C479.114 311.307 478.836 311.743 478.473 312.102C478.129 312.477 477.713 312.778 477.249 312.988C476.785 313.197 476.283 313.311 475.774 313.321L454.796 313.831C453.874 313.852 452.977 313.538 452.27 312.947C451.563 312.356 451.096 311.529 450.955 310.619L436.825 229.106C436.727 228.47 436.429 227.88 435.973 227.425C435.517 226.969 434.927 226.67 434.29 226.572C433.652 226.474 432.999 226.581 432.427 226.879C431.855 227.176 431.393 227.648 431.108 228.226C419.708 251.401 409.077 271.443 398.607 311.428C398.399 312.238 397.927 312.957 397.265 313.471C396.603 313.985 395.789 314.264 394.951 314.265C394.663 314.265 394.376 314.232 394.096 314.168Z" fill="#2F2E41"/>
<path d="M411.188 181.142C410.746 180.83 410.376 180.428 410.102 179.962C409.828 179.496 409.657 178.977 409.599 178.44C406.91 153.381 408.783 133.77 415.325 118.487C416.477 115.851 418.213 113.51 420.401 111.64C422.59 109.77 425.175 108.419 427.962 107.69L444.934 106.834L445.022 106.877C448.852 108.749 451.976 111.804 453.929 115.588C455.883 119.372 456.563 123.684 455.869 127.884C450.41 142.248 445.839 157.203 449.325 169.267C449.471 169.771 449.514 170.299 449.45 170.821C449.387 171.342 449.219 171.845 448.956 172.3C448.701 172.739 448.359 173.122 447.95 173.424C447.541 173.727 447.075 173.942 446.579 174.058L414.252 181.734C413.729 181.859 413.185 181.87 412.656 181.768C412.128 181.666 411.628 181.453 411.188 181.142Z" fill="#FF5300"/>
<path d="M403.882 145.181L371.329 119.545C371.07 119.636 370.806 119.714 370.539 119.778C369.39 120.046 368.197 120.07 367.039 119.848C365.88 119.627 364.781 119.164 363.813 118.49C362.838 117.816 362.019 116.942 361.411 115.926C360.802 114.911 360.418 113.777 360.283 112.602C360.065 110.722 360.49 108.824 361.488 107.215C362.486 105.606 364 104.382 365.783 103.74C366.896 103.341 368.08 103.182 369.259 103.272C370.438 103.363 371.585 103.7 372.624 104.264C373.663 104.827 374.571 105.604 375.288 106.542C376.006 107.48 376.517 108.559 376.787 109.707C376.871 110.071 376.929 110.441 376.962 110.813L409.368 129.474L417.432 124.84L426.365 136.515L413.844 145.423C412.378 146.457 410.618 146.992 408.823 146.949C407.028 146.905 405.296 146.285 403.882 145.181H403.882Z" fill="#FFB8B8"/>
<path d="M430.337 140.15L411.764 127.542L420.493 115.202C421.652 113.563 423.354 112.386 425.298 111.879C427.242 111.372 429.304 111.567 431.118 112.43C432.953 113.303 434.415 114.802 435.239 116.657C436.064 118.512 436.197 120.6 435.614 122.544L430.337 140.15Z" fill="#FF5300"/>
<path d="M439.27 100.507C449.617 100.507 458.006 92.1333 458.006 81.8044C458.006 71.4755 449.617 63.1022 439.27 63.1022C428.923 63.1022 420.535 71.4755 420.535 81.8044C420.535 92.1333 428.923 100.507 439.27 100.507Z" fill="#FFB8B8"/>
<path d="M432.401 79.0189C427.586 82.3087 421.263 85.6905 416.345 82.1871C413.115 79.8866 412.098 75.6268 413.407 71.8885C415.762 65.1659 422.233 62.2063 428.42 59.9377C436.463 56.9886 445.222 54.6424 453.525 56.7544C461.829 58.8665 469.167 66.8916 467.668 75.3134C466.463 82.0859 460.063 87.7212 460.972 94.5398C461.886 101.402 469.617 105.014 476.443 106.241C483.268 107.467 490.906 107.861 495.811 112.755C502.069 118.998 500.506 130.157 494.618 136.748C488.73 143.34 479.845 146.328 471.235 148.359C459.827 151.05 447.489 152.464 436.655 147.998C425.82 143.532 417.389 131.509 420.528 120.235C421.853 115.473 424.976 111.449 427.995 107.531C431.013 103.613 434.069 99.5158 435.22 94.7088C436.18 90.703 435.47 86.0521 432.808 83.0472C432.324 82.5213 432.02 81.8558 431.938 81.1462C431.857 80.4367 432.003 79.7196 432.355 79.098L432.401 79.0189Z" fill="#2F2E41"/>
</svg>
