<svg width="223" height="162" viewBox="0 0 223 162" fill="none" xmlns="http://www.w3.org/2000/svg">
<path d="M9.10221 113.234L15.9456 97.5866C16.3476 96.6631 16.3476 95.6121 15.9456 94.6886L9.10221 79.0416H21.3717V71.8232H3.60206C2.38568 71.8232 1.25395 72.4389 0.587583 73.458C-0.0787804 74.477 -0.184573 75.7615 0.301978 76.8761L8.72138 96.1323L0.301978 115.388C-0.184573 116.503 -0.0787804 117.787 0.587583 118.807C1.25395 119.826 2.38568 120.441 3.60206 120.441H45.1598C43.7848 118.117 42.5155 115.707 41.3838 113.223H9.10221V113.234Z" fill="#DEDEDE"/>
<path d="M214.279 96.1425L222.698 76.8864C223.185 75.7718 223.079 74.4873 222.412 73.4682C221.746 72.4492 220.614 71.8335 219.398 71.8335H201.628V79.0519H213.898L207.054 94.6988C206.652 95.6223 206.652 96.6733 207.054 97.5968L213.898 113.244H181.616C180.484 115.728 179.226 118.127 177.84 120.462H219.398C220.614 120.462 221.746 119.846 222.412 118.827C223.079 117.808 223.185 116.524 222.698 115.409L214.279 96.1425Z" fill="#DEDEDE"/>
<path d="M78.6579 60.295C85.533 49.3507 97.6862 42.0579 111.5 42.0579C125.314 42.0579 137.467 49.3507 144.342 60.295H148.52C141.264 47.2807 127.387 38.4487 111.5 38.4487C95.6131 38.4487 81.7358 47.2701 74.4799 60.295H78.6579Z" fill="#DEDEDE"/>
<path d="M144.342 101.705C137.467 112.649 125.314 119.942 111.5 119.942C97.6862 119.942 85.533 112.649 78.6579 101.705H74.4799C81.7358 114.719 95.6131 123.551 111.5 123.551C127.387 123.551 141.264 114.73 148.52 101.705H144.342Z" fill="#DEDEDE"/>
<path d="M40.9395 60.2949C49.8772 29.6591 78.1289 7.22901 111.5 7.22901C144.871 7.22901 173.123 29.6698 182.06 60.2949H189.549C185.963 46.5905 178.813 34.022 168.564 23.7252C153.322 8.42855 133.056 0 111.5 0C89.9436 0 69.6777 8.42855 54.436 23.7252C44.1867 34.0114 37.0365 46.5799 33.4508 60.2949H40.9395Z" fill="#DEDEDE"/>
<path d="M182.06 101.705C173.123 132.341 144.871 154.771 111.5 154.771C78.1289 154.771 49.8772 132.33 40.9395 101.705H33.4508C37.0365 115.409 44.1867 127.978 54.436 138.275C69.6777 153.571 89.9436 162 111.5 162C133.056 162 153.322 153.571 168.564 138.275C178.813 127.988 185.963 115.42 189.549 101.705H182.06Z" fill="#DEDEDE"/>
<path d="M201.628 105.314H21.3717C19.3832 105.314 17.7755 103.701 17.7755 101.705V60.2948C17.7755 58.2991 19.3832 56.6855 21.3717 56.6855H201.628C203.617 56.6855 205.224 58.2991 205.224 60.2948V101.705C205.224 103.701 203.617 105.314 201.628 105.314ZM24.968 98.1064H198.043V63.9146H24.968V98.1064Z" fill="#DEDEDE"/>
<path d="M45.7627 91.5676V70.3901H50.5224C51.7811 70.3901 52.9129 70.7192 53.9177 71.388C54.7851 71.9506 55.3985 72.821 55.7687 74.0099C55.9697 74.6362 56.0755 75.3899 56.0755 76.2604C56.0755 77.6828 55.6947 78.8187 54.9437 79.6679C54.6264 80.0288 54.2562 80.3048 53.8331 80.4959C54.5418 80.7612 55.1447 81.3026 55.6312 82.0988C55.9591 82.6402 56.2024 83.3408 56.3505 84.19C56.4245 84.6252 56.4668 85.1136 56.4668 85.6549C56.4668 86.9925 56.213 88.1283 55.7053 89.0624C55.3139 89.7949 54.7533 90.3787 54.0447 90.814C53.2408 91.3129 52.4369 91.557 51.633 91.557H45.7627V91.5676ZM49.1897 79.0416H50.5224C51.5061 79.0416 52.1725 78.5533 52.511 77.5873C52.6379 77.2264 52.6907 76.7805 52.6907 76.2497C52.6907 75.3687 52.4792 74.7105 52.0561 74.2541C51.6648 73.8401 51.1571 73.6278 50.5224 73.6278H49.1897V79.0416ZM49.1897 88.4149H50.5224C51.6013 88.4149 52.3417 87.8629 52.7648 86.7376C52.9129 86.3555 52.9869 85.9203 52.9869 85.4214C52.9869 84.2431 52.7648 83.3832 52.31 82.8419C51.908 82.3429 51.3157 82.0988 50.5224 82.0988H49.1897V88.4149Z" fill="#DEDEDE"/>
<path d="M68.9796 91.8013C67.5728 91.8013 66.3882 91.313 65.4151 90.3364C64.442 89.3598 63.9554 88.1709 63.9554 86.7697V70.4009H67.0651V86.7272C67.0651 87.2367 67.245 87.6614 67.6046 88.0223C67.9642 88.3726 68.3978 88.5531 68.895 88.5531C69.4027 88.5531 69.8258 88.3726 70.1854 88.0223C70.5345 87.672 70.7143 87.2367 70.7143 86.7272V70.4009H74.025V86.7697C74.025 88.1922 73.5278 89.3811 72.5441 90.3471C71.5604 91.3237 70.3652 91.8013 68.9796 91.8013Z" fill="#DEDEDE"/>
<path d="M84.6868 73.617H81.3021V70.4111H91.2341V73.617H87.8705V91.5674H84.6868V73.617Z" fill="#DEDEDE"/>
<path d="M103.207 91.8436C101.801 91.8436 100.616 91.3553 99.6323 90.3681C98.6486 89.3809 98.1621 88.192 98.1621 86.8014V75.2519C98.1621 73.8401 98.6592 72.6512 99.6429 71.664C100.627 70.6767 101.822 70.1885 103.207 70.1885C104.614 70.1885 105.799 70.6874 106.772 71.6746C107.745 72.6618 108.232 73.8613 108.232 75.2519V77.6722H104.931V75.1882C104.931 74.6787 104.752 74.2435 104.392 73.8826C104.032 73.5217 103.599 73.3412 103.091 73.3412C102.583 73.3412 102.16 73.5217 101.801 73.8826C101.452 74.2435 101.272 74.6787 101.272 75.1882V86.7696C101.272 87.2791 101.452 87.7037 101.801 88.0646C102.15 88.4149 102.583 88.5954 103.091 88.5954C103.599 88.5954 104.032 88.4149 104.392 88.0646C104.752 87.7143 104.931 87.2791 104.931 86.7696V83.8503H108.232V86.8014C108.232 88.2132 107.734 89.4021 106.751 90.3787C105.767 91.3447 104.582 91.8436 103.207 91.8436Z" fill="#DEDEDE"/>
<path d="M118.767 82.5975V91.5674H115.583V70.4111H118.767V79.3917H122.606V70.4111H125.79V91.5674H122.606V82.5975H118.767Z" fill="#DEDEDE"/>
<path d="M133.363 91.5676V70.3901H142.417V73.5959H136.547V79.3706H140.841V82.5765H136.547V88.3512H142.417V91.557H133.363V91.5676Z" fill="#DEDEDE"/>
<path d="M154.359 70.4111C156.136 70.4111 157.437 70.8994 158.262 71.876C158.991 72.7359 159.351 73.9248 159.351 75.4534V78.5319C159.351 80.0286 158.78 81.2918 157.648 82.3321L160.007 91.5674H156.569L154.644 83.5954C154.549 83.5954 154.464 83.5954 154.359 83.5954H152.529V91.5674H149.345V70.4111H154.359ZM156.263 75.5065C156.263 74.2751 155.66 73.67 154.443 73.67H152.529V80.4426H154.443C154.951 80.4426 155.374 80.2621 155.734 79.9012C156.083 79.5403 156.263 79.1051 156.263 78.6062V75.5065Z" fill="#DEDEDE"/>
<path d="M169.78 82.7039L165.518 70.3901H169.019L171.377 77.9907L173.715 70.3901H177.237L172.964 82.7039V91.5676H169.78V82.7039Z" fill="#DEDEDE"/>
<path d="M68.4615 40.2847L68.1018 39.7963L72.3433 35.7095L73.5279 37.3442L72.9568 37.7476L71.9625 37.0788L70.3865 38.5862L72.1741 40.4545L73.0943 39.5734L72.777 38.8834L73.2423 38.204L74.7654 40.1148L74.3424 40.7305L73.5385 40.1467L72.6817 40.9746L73.9299 42.2803L75.0616 41.654L75.4318 42.1529L72.777 44.7006L72.4279 44.2335L72.8298 43.3631L69.4028 39.7857L68.4615 40.2847Z" fill="#DEDEDE"/>
<path d="M81.7147 37.1215L78.88 39.0429L78.6262 38.5228L79.2397 37.6948L76.553 33.7246L75.6222 34.1068L75.3049 33.5336C75.6222 33.2363 76.0136 32.8967 76.4579 32.5251C76.9127 32.1536 77.2934 31.8563 77.6108 31.644C78.4146 31.092 79.1021 30.7948 79.6733 30.7417C80.2445 30.6887 80.7099 30.9222 81.0695 31.4636C81.2176 31.6865 81.3128 31.9519 81.3339 32.2385C81.3657 32.5251 81.334 32.8223 81.2388 33.109C81.1542 33.3956 81.0272 33.6609 80.8474 33.8945L82.159 34.3615C82.5186 34.4889 82.8042 34.5845 83.0157 34.6376C83.2273 34.7012 83.4494 34.7225 83.6715 34.7331C83.8936 34.7331 84.1157 34.7013 84.3484 34.6163L84.5389 34.5526L84.7398 35.0728C84.5706 35.2957 84.3379 35.508 84.0523 35.6991C83.6292 35.9857 83.185 36.1237 82.7407 36.0918C82.2965 36.06 81.8205 35.9114 81.3128 35.6354L80.0541 34.9773L79.4935 35.3594L80.4666 36.8031L81.3868 36.5695L81.7147 37.1215ZM77.6002 32.5357L79.0387 34.6694L79.832 34.1386C79.9907 33.8945 80.0753 33.6503 80.0858 33.3956C80.107 33.1408 80.0223 32.886 79.8531 32.6313C79.7156 32.4189 79.5358 32.2597 79.3243 32.1536C79.1127 32.0474 78.8906 32.005 78.6474 32.0262C78.4041 32.0474 78.1608 32.1429 77.9281 32.3022C77.8435 32.3659 77.7694 32.419 77.706 32.4614C77.6531 32.4933 77.6108 32.5251 77.6002 32.5357Z" fill="#DEDEDE"/>
<path d="M84.4753 28.1832L84.306 27.5994L89.6898 25.1685L90.3562 27.0792L89.6687 27.2703L88.8754 26.3256L86.8552 27.2385L87.8071 29.3721L88.9706 28.8414L88.8966 28.0983L89.5523 27.6418L90.3245 29.8286L89.6898 30.2532L89.1504 29.4889L88.0715 29.9772L88.9917 32.026L91.1177 31.0706L91.2235 29.6694L91.8687 29.4677L92.5245 31.3359L87.0456 33.8093L86.8552 33.2573L87.5321 32.5779L85.5013 28.0452L84.4753 28.1832Z" fill="#DEDEDE"/>
<path d="M97.1468 30.0196C96.6708 30.147 96.2371 30.1895 95.814 30.147C95.4015 30.1045 95.0842 29.9878 94.862 29.8073L94.5236 28.1195L95.2852 28.0239L95.7717 28.9475C95.9198 29.0748 96.1102 29.1598 96.3535 29.2022C96.5862 29.2447 96.8294 29.2341 97.0515 29.1704C97.2208 29.1279 97.3583 29.0536 97.4958 28.9475C97.6228 28.8413 97.7179 28.7139 97.7708 28.5653C97.8237 28.4167 97.8343 28.2575 97.7814 28.0876C97.7391 27.9284 97.6439 27.801 97.5063 27.7055C97.3688 27.6099 97.1997 27.5356 97.0198 27.4932C96.84 27.4401 96.5862 27.387 96.2688 27.3339C95.8246 27.249 95.4544 27.1747 95.1688 27.0792C94.8832 26.9943 94.6188 26.8456 94.365 26.6333C94.1217 26.421 93.9419 26.1344 93.8361 25.7629C93.7197 25.3383 93.7303 24.9349 93.8784 24.5634C94.0265 24.1918 94.2697 23.884 94.5976 23.6292C94.9255 23.3745 95.2957 23.1834 95.7188 23.0772C96.015 22.9923 96.3323 22.9604 96.6919 22.9604C97.041 22.9604 97.3266 23.0135 97.5275 23.1197C97.5381 23.1515 97.591 23.4063 97.6756 23.884C97.7602 24.3617 97.8237 24.6801 97.8554 24.85L97.115 24.9349L96.7025 24.1069C96.5756 23.9901 96.4063 23.9158 96.1842 23.8628C95.9621 23.8097 95.7506 23.8203 95.5496 23.8733C95.3275 23.937 95.1583 24.0538 95.0525 24.2237C94.9467 24.3935 94.9361 24.5952 94.9996 24.8393C95.0419 25.0092 95.1477 25.1472 95.2957 25.2534C95.4438 25.3595 95.6236 25.4338 95.8246 25.4869C96.0256 25.54 96.3006 25.5931 96.6391 25.6567C97.1045 25.7417 97.4852 25.8266 97.792 25.9115C98.0881 26.007 98.3737 26.1557 98.6275 26.3574C98.8814 26.5697 99.0612 26.8563 99.1564 27.2172C99.2833 27.663 99.2516 28.0876 99.0718 28.4698C98.892 28.8519 98.617 29.181 98.2574 29.4464C97.9189 29.733 97.5381 29.9135 97.1468 30.0196Z" fill="#DEDEDE"/>
<path d="M101.452 22.4511L101.483 21.8248L104.91 21.4745L104.889 22.1008L104.011 22.4829L104.212 24.4362L107.121 24.1389L106.931 22.207L105.915 21.9947L105.926 21.3684L109.374 21.0181L109.353 21.6444L108.475 22.0265L108.983 27.0051L109.987 27.1643V27.7906L106.56 28.1409L106.571 27.5571L107.438 27.1219L107.237 25.1049L104.329 25.4022L104.54 27.4615L105.556 27.6207L105.534 28.2471L102.129 28.5974V28.0135L103.006 27.5783L102.509 22.6634L101.452 22.4511Z" fill="#DEDEDE"/>
<path d="M117.307 28.0136L117.518 27.4192L118.481 27.2599L119.792 22.5043L118.872 22.0372L119.063 21.4321L121.76 21.9735L121.95 23.12L122.405 26.6549L124.33 23.5021L124.891 22.5998L127.546 23.1306L127.345 23.7357L126.414 23.8099L125.769 28.7461L126.668 29.2131L126.477 29.8395L123.336 29.2131L123.558 28.6187L124.362 28.4276L124.838 24.553L122.31 28.7779L121.189 28.7036L120.554 23.7569L119.549 27.4829L120.321 27.9287L120.099 28.555L117.307 28.0136Z" fill="#DEDEDE"/>
<path d="M131.163 24.9987L131.47 24.4785L136.928 26.7396L136.007 28.5336L135.394 28.1726L135.531 26.9413L133.479 26.0921L132.591 28.2576L133.776 28.7459L134.262 28.1833L135.045 28.3425L133.998 30.4125L133.247 30.2426L133.437 29.3191L132.348 28.8626L131.491 30.9326L133.649 31.8243L134.728 30.9326L135.32 31.2617L134.421 33.0238L128.868 30.7203L129.143 30.2108L130.105 30.232L131.999 25.6462L131.163 24.9987Z" fill="#DEDEDE"/>
<path d="M136.737 34.1812L137.107 33.7354L138.049 33.8203L142.978 30.2642L144.258 30.7737L142.861 36.9306L143.316 37.663L142.935 38.1513L140.09 36.3361L140.46 35.8903L141.465 36.0176L141.73 34.8394L139.868 33.6504L138.916 34.4041L139.572 35.264L139.181 35.7523L136.737 34.1812ZM140.587 33.0984L141.973 33.9795L142.576 31.538L140.587 33.0984Z" fill="#DEDEDE"/>
<path d="M149.514 34.7222L154.264 39.1063L152.688 40.5606L152.212 39.9555L152.889 38.8091L151.915 37.9068L148.414 41.7283L149.017 42.6199L148.531 43.034L145.971 40.6774L146.405 40.2846L147.314 40.688L150.805 36.8771L149.853 35.996L148.605 36.8028L148.15 36.2402L149.514 34.7222Z" fill="#DEDEDE"/>
<path d="M65.7747 119.815L63.9237 117.575L64.3151 117.342L64.992 117.745L67.869 115.346L67.5094 114.656L67.9219 114.38C68.2604 114.688 68.5671 114.964 68.821 115.218C69.0748 115.473 69.3393 115.749 69.6037 116.078C70.0374 116.598 70.2806 117.076 70.3441 117.522C70.4075 117.957 70.2172 118.371 69.7729 118.732C69.5191 118.944 69.2335 119.061 68.9162 119.104C68.5989 119.135 68.2815 119.093 67.9642 118.955C67.6469 118.817 67.3719 118.605 67.1286 118.307C67.0757 118.244 66.9911 118.138 66.8959 118L67.245 117.575L67.3402 117.692C67.5835 117.978 67.8373 118.138 68.1017 118.169C68.3661 118.201 68.62 118.116 68.8633 117.904C69.1172 117.692 69.2652 117.448 69.3075 117.182C69.3498 116.906 69.2652 116.63 69.0325 116.354C69.0008 116.312 68.9585 116.269 68.9056 116.216C68.8527 116.163 68.821 116.131 68.7893 116.1L65.7853 118.605L66.2401 119.539L65.7747 119.815Z" fill="#DEDEDE"/>
<path d="M70.5345 124.836L68.5989 123.021L68.9479 122.734L69.6777 123.052L72.2057 120.335L71.7614 119.698L72.1422 119.358C72.4278 119.549 72.7452 119.783 73.1048 120.059C73.4644 120.335 73.7499 120.579 73.972 120.781C74.5221 121.301 74.8712 121.768 75.0087 122.182C75.1462 122.607 75.0509 122.999 74.7125 123.36C74.5644 123.52 74.3951 123.626 74.173 123.7C73.9615 123.774 73.7393 123.796 73.5066 123.785C73.274 123.764 73.0518 123.711 72.8509 123.626L72.7239 124.698C72.6922 124.995 72.6711 125.218 72.6605 125.398C72.6499 125.568 72.6711 125.738 72.7028 125.908C72.7346 126.078 72.8086 126.237 72.9038 126.396L72.9884 126.534L72.6288 126.778C72.4278 126.683 72.2374 126.545 72.0365 126.364C71.7403 126.088 71.5711 125.781 71.5182 125.441C71.4653 125.101 71.497 124.708 71.6134 124.284L71.8884 123.212L71.5076 122.851L70.5874 123.838L70.9259 124.496L70.5345 124.836ZM73.274 120.929L71.9201 122.384L72.4595 122.893C72.6711 122.968 72.872 122.989 73.0624 122.957C73.2528 122.925 73.4326 122.819 73.5913 122.649C73.7288 122.5 73.8134 122.341 73.8557 122.171C73.898 121.991 73.8981 121.821 73.8346 121.641C73.7817 121.46 73.6653 121.29 73.5066 121.142C73.4432 121.089 73.3903 121.036 73.348 121.004C73.3057 120.961 73.2846 120.94 73.274 120.929Z" fill="#DEDEDE"/>
<path d="M77.4626 124.57L77.7799 124.23L81.4925 126.906L80.4771 128.094L80.0857 127.712L80.4136 126.81L79.0174 125.812L77.9703 127.288L78.7742 127.872L79.2396 127.532L79.8001 127.797L78.6472 129.167L78.1184 128.901L78.4251 128.243L77.6847 127.712L76.6798 129.124L78.1501 130.186L79.1232 129.708L79.5146 130.069L78.5203 131.237L74.7443 128.519L75.0404 128.179L75.7596 128.37L77.9915 125.25L77.4626 124.57Z" fill="#DEDEDE"/>
<path d="M80.7837 132.734L81.0693 132.341L81.8203 132.426L83.8088 129.167L83.2165 128.625L83.4809 128.211L85.3742 129.188L85.2685 130.08L84.8454 132.808L86.9502 130.876L87.5531 130.324L89.4147 131.29L89.1397 131.693L88.431 131.545L86.8973 135.08L87.4685 135.621L87.1935 136.046L84.9935 134.899L85.279 134.506L85.9137 134.538L87.0877 131.757L84.3059 134.358L83.4809 134.06L84.0627 130.25L82.5184 132.808L83.0049 133.307L82.7087 133.721L80.7837 132.734Z" fill="#DEDEDE"/>
<path d="M91.3081 132.511L91.5302 132.086L94.0476 133.009L93.8255 133.455L93.064 133.413L91.7523 137.011L92.3976 137.468L92.1754 137.924L89.6898 137.011L89.8802 136.597H90.6523L91.9533 133.009L91.3081 132.511Z" fill="#DEDEDE"/>
<path d="M96.4698 134.538L95.7611 134.113L95.9621 133.667L98.5535 134.283L98.3842 134.729L97.6438 134.782L97.1044 137.054C96.9881 137.553 97.0198 137.945 97.1996 138.243C97.3794 138.54 97.6756 138.731 98.0775 138.837C98.4583 138.922 98.7756 138.88 99.04 138.699C99.3044 138.519 99.4949 138.19 99.6006 137.712L100.151 135.398L99.4737 134.984L99.6429 134.527L101.822 135.047L101.653 135.504L100.923 135.557L100.383 137.765C100.193 138.55 99.8651 139.092 99.4103 139.389C98.9554 139.686 98.3525 139.739 97.6227 139.57C97.2313 139.474 96.8823 139.347 96.5861 139.166C96.2899 138.996 96.0678 138.731 95.9197 138.37C95.7716 138.009 95.7611 137.542 95.8986 136.969L96.4698 134.538Z" fill="#DEDEDE"/>
<path d="M103.197 140.642L103.303 140.164L104.032 139.952L104.593 136.173L103.842 135.907L103.927 135.419L106.053 135.578L106.306 136.449L106.983 139.124L108.168 136.523L108.517 135.78L110.611 135.939L110.516 136.427L109.808 136.565L109.765 140.419L110.506 140.695L110.421 141.194L107.946 141.003L108.062 140.525L108.665 140.302V137.277L107.121 140.758L106.254 140.812L105.302 137.075L104.868 140.037L105.503 140.302L105.386 140.801L103.197 140.642Z" fill="#DEDEDE"/>
<path d="M119.782 140.653C119.242 140.727 118.766 140.684 118.354 140.515C117.941 140.345 117.603 140.069 117.349 139.697C117.095 139.326 116.926 138.88 116.852 138.36C116.778 137.818 116.831 137.33 117 136.874C117.18 136.417 117.465 136.046 117.867 135.748C118.269 135.451 118.756 135.26 119.338 135.175C119.866 135.101 120.342 135.143 120.766 135.302C121.178 135.462 121.517 135.727 121.781 136.109C122.045 136.481 122.215 136.958 122.289 137.51C122.352 137.924 122.32 138.328 122.225 138.71C122.119 139.092 121.95 139.421 121.696 139.718C121.453 140.005 121.146 140.228 120.787 140.377C120.956 140.631 121.189 140.812 121.506 140.929C121.813 141.045 122.225 141.12 122.743 141.141C122.743 141.162 122.743 141.247 122.743 141.364C122.743 141.491 122.743 141.565 122.733 141.587C122.458 141.746 122.151 141.842 121.802 141.895C121.506 141.937 121.231 141.916 120.977 141.842C120.713 141.767 120.501 141.619 120.321 141.417C120.141 141.205 120.046 140.939 120.004 140.621C119.941 140.621 119.866 140.631 119.782 140.653ZM119.179 135.876C118.724 135.939 118.417 136.141 118.238 136.491C118.058 136.842 118.015 137.309 118.1 137.893C118.153 138.254 118.259 138.593 118.417 138.922C118.587 139.251 118.809 139.517 119.105 139.729C119.401 139.941 119.761 140.026 120.184 140.005C120.459 139.867 120.649 139.697 120.787 139.485C120.914 139.283 120.998 139.05 121.019 138.795C121.041 138.54 121.03 138.254 120.988 137.925C120.935 137.574 120.84 137.234 120.681 136.895C120.522 136.566 120.321 136.29 120.067 136.088C119.814 135.897 119.517 135.823 119.179 135.876Z" fill="#DEDEDE"/>
<path d="M124.7 135.026L123.875 135.005L123.833 134.517L126.382 133.774L126.456 134.252L125.843 134.666L126.488 136.905C126.625 137.394 126.847 137.733 127.154 137.903C127.45 138.073 127.81 138.094 128.212 137.978C128.582 137.871 128.846 137.67 128.984 137.383C129.121 137.096 129.132 136.714 128.995 136.247L128.339 133.954L127.545 133.933L127.471 133.455L129.629 132.829L129.703 133.307L129.09 133.721L129.703 135.908C129.915 136.693 129.904 137.319 129.65 137.808C129.396 138.285 128.91 138.636 128.18 138.848C127.789 138.965 127.419 139.018 127.08 139.007C126.742 138.997 126.414 138.88 126.107 138.646C125.8 138.413 125.568 137.999 125.409 137.436L124.7 135.026Z" fill="#DEDEDE"/>
<path d="M133.5 136.99L133.374 136.555L133.828 135.982L133.617 131.269L134.484 130.653L137.869 134.166L138.535 134.188L138.694 134.644L136.314 135.727L136.187 135.292L136.695 134.697L136.05 134.028L134.495 134.729L134.579 135.663L135.415 135.6L135.563 136.067L133.5 136.99ZM134.431 134.028L135.584 133.508L134.262 132.086L134.431 134.028Z" fill="#DEDEDE"/>
<path d="M141.031 133.349L140.841 132.935L141.285 132.352L139.318 129.156L138.503 129.284L138.313 128.848L140.63 127.405L140.82 127.84L140.323 128.509L142.343 131.789L143.644 131.035L143.612 129.761L144.099 129.549L144.786 131.014L141.031 133.349Z" fill="#DEDEDE"/>
<path d="M144.046 125.674L143.803 125.26L145.929 123.615L146.193 124.039L145.749 124.666L148.086 127.702L148.816 127.394L149.081 127.829L146.986 129.453L146.733 129.071L147.145 128.413L144.818 125.398L144.046 125.674Z" fill="#DEDEDE"/>
<path d="M147.452 122.373L151.069 118.902L152.116 120.197L151.63 120.537L150.784 119.963L150.043 120.675L152.814 123.583L153.534 123.159L153.83 123.562L151.884 125.43L151.598 125.069L151.958 124.39L149.197 121.492L148.478 122.182L149.038 123.19L148.584 123.52L147.452 122.373Z" fill="#DEDEDE"/>
<path d="M152.719 117.84L152.402 117.458L153.946 115.537L154.274 115.908L154.126 116.418L155.966 116.757L155.247 115.048L154.708 115.367L154.369 115.006L155.586 113.499L155.914 113.87L155.776 114.39L156.739 116.98L157.87 117.904L158.505 117.511L158.833 117.84L157.225 119.825L156.918 119.496L157.119 118.827L156.051 117.957L153.248 117.522L152.719 117.84Z" fill="#DEDEDE"/>
</svg>
