<svg width="214" height="170" viewBox="0 0 214 170" fill="none" xmlns="http://www.w3.org/2000/svg">
<path d="M27.9999 63.47C31.6699 49.85 38.8499 37.36 49.0999 27.12C64.5199 11.7 85.02 3.21002 106.83 3.21002C128.64 3.21002 149.14 11.7 164.56 27.12C174.8 37.36 181.99 49.85 185.66 63.47H188.97C185.23 48.99 177.68 35.71 166.83 24.85C150.8 8.82001 129.5 0 106.83 0C84.16 0 62.86 8.83001 46.83 24.85C35.97 35.71 28.4299 48.99 24.6899 63.47H27.9999Z" fill="#DEDEDE"/>
<path d="M185.66 106.23C181.99 119.85 174.81 132.34 164.56 142.58C149.14 158 128.64 166.49 106.83 166.49C85.02 166.49 64.5199 158 49.0999 142.58C38.8599 132.34 31.6699 119.85 27.9999 106.23H24.6899C28.4299 120.71 35.98 133.99 46.83 144.85C62.86 160.88 84.16 169.7 106.83 169.7C129.5 169.7 150.8 160.87 166.83 144.85C177.69 133.99 185.23 120.71 188.97 106.23H185.66Z" fill="#DEDEDE"/>
<path d="M175.65 106.23C172.24 117.27 166.17 127.38 157.77 135.78C144.17 149.38 126.08 156.88 106.84 156.88C87.6001 156.88 69.5101 149.39 55.9101 135.78C47.5101 127.38 41.4401 117.26 38.0301 106.23H31.3501C34.9401 118.99 41.7601 130.68 51.3901 140.31C66.2001 155.12 85.9001 163.28 106.85 163.28C127.8 163.28 147.5 155.12 162.31 140.31C171.94 130.68 178.75 118.99 182.35 106.23H175.65Z" fill="#DEDEDE"/>
<path d="M38.02 63.4699C41.43 52.4299 47.5 42.3199 55.9 33.9199C69.5 20.3199 87.5901 12.8199 106.83 12.8199C126.07 12.8199 144.16 20.3099 157.76 33.9199C166.16 42.3199 172.23 52.4399 175.64 63.4699H182.32C178.73 50.7099 171.91 39.0199 162.28 29.3899C147.47 14.5799 127.77 6.41992 106.82 6.41992C85.8701 6.41992 66.17 14.5799 51.36 29.3899C41.73 39.0199 34.9201 50.7099 31.3201 63.4699H38.02Z" fill="#DEDEDE"/>
<path d="M190.69 107.83H22.98C10.31 107.83 0 97.5201 0 84.8501C0 72.1801 10.31 61.8701 22.98 61.8701H190.69C203.36 61.8701 213.67 72.1801 213.67 84.8501C213.67 97.5301 203.36 107.83 190.69 107.83ZM22.98 65.0801C12.07 65.0801 3.19998 73.9501 3.19998 84.8601C3.19998 95.7701 12.07 104.64 22.98 104.64H190.69C201.6 104.64 210.47 95.7701 210.47 84.8601C210.47 73.9501 201.6 65.0801 190.69 65.0801H22.98Z" fill="#DEDEDE"/>
<path d="M106.83 22.6299L110.48 33.8499H122.27L112.73 40.7799L116.37 51.9999L106.83 45.0699L97.29 51.9999L100.93 40.7799L91.39 33.8499H103.19L106.83 22.6299Z" fill="#DEDEDE"/>
<path d="M58.32 123.88L59.1 122.53L57.3 120.13L55.78 120.5L55.11 119.6L61.69 118.13L62.23 118.85L58.99 124.77L58.32 123.88ZM58.22 119.91L59.58 121.72L61 119.24L58.22 119.91Z" fill="#DEDEDE"/>
<path d="M61.74 126.93C61.74 126.32 62.04 125.71 62.64 125.12L65.24 122.54L66.01 123.32L63.37 125.94C62.99 126.31 62.8 126.68 62.78 127.05C62.76 127.42 62.92 127.78 63.27 128.12C63.61 128.46 63.96 128.62 64.33 128.6C64.7 128.58 65.07 128.39 65.45 128.02L68.09 125.4L68.86 126.18L66.27 128.76C65.68 129.35 65.07 129.64 64.46 129.64C63.84 129.64 63.24 129.34 62.65 128.75C62.03 128.15 61.74 127.55 61.74 126.93Z" fill="#DEDEDE"/>
<path d="M68.27 133.69L71.47 129.56L69.8901 128.33L70.4501 127.61L74.5001 130.76L73.9401 131.48L72.35 130.25L69.15 134.38L68.27 133.69Z" fill="#DEDEDE"/>
<path d="M79.98 134.12L80.93 134.68L77.84 139.98L76.89 139.42L78.23 137.12L75.51 135.53L74.17 137.83L73.22 137.28L76.31 131.98L77.26 132.53L75.96 134.75L78.68 136.34L79.98 134.12Z" fill="#DEDEDE"/>
<path d="M81.03 141.52L83.4 135.86L87.1901 137.45L86.85 138.26L84.0701 137.09L83.41 138.66L86.03 139.76L85.6901 140.57L83.0701 139.47L82.3701 141.13L85.15 142.3L84.8101 143.11L81.03 141.52Z" fill="#DEDEDE"/>
<path d="M93.48 139.36L94.49 139.64L92.87 145.56L92.07 145.34L90.01 140.32L88.87 144.47L87.87 144.2L89.49 138.28L90.29 138.5L92.34 143.51L93.48 139.36Z" fill="#DEDEDE"/>
<path d="M97.78 146.42L98.49 141.24L96.51 140.97L96.63 140.06L101.71 140.75L101.59 141.66L99.6 141.39L98.89 146.57L97.78 146.42Z" fill="#DEDEDE"/>
<path d="M103.73 147L103.98 140.86L105.09 140.9L104.84 147.04L103.73 147Z" fill="#DEDEDE"/>
<path d="M109.43 146.72C108.96 146.49 108.6 146.14 108.33 145.68C108.06 145.22 107.91 144.67 107.87 144.04C107.83 143.41 107.92 142.85 108.13 142.36C108.34 141.87 108.67 141.49 109.1 141.21C109.54 140.93 110.05 140.77 110.66 140.73C111.07 140.71 111.47 140.75 111.84 140.86C112.21 140.97 112.53 141.13 112.78 141.34L112.47 142.17C112.18 141.96 111.9 141.82 111.62 141.73C111.34 141.65 111.05 141.61 110.74 141.63C110.15 141.66 109.7 141.88 109.4 142.29C109.1 142.69 108.97 143.25 109.01 143.97C109.05 144.69 109.25 145.24 109.59 145.61C109.93 145.98 110.4 146.15 111 146.11C111.31 146.09 111.6 146.02 111.86 145.91C112.12 145.8 112.39 145.62 112.65 145.37L113.06 146.16C112.83 146.4 112.54 146.6 112.18 146.75C111.82 146.9 111.44 146.99 111.02 147.01C110.43 147.05 109.9 146.95 109.43 146.72Z" fill="#DEDEDE"/>
<path d="M125.5 144.29L124.37 144.59L123.09 142.82C122.97 142.65 122.84 142.55 122.68 142.52C122.52 142.48 122.33 142.5 122.11 142.56L121.03 142.85L121.69 145.32L120.62 145.6L119.04 139.67L121.58 138.99C122.25 138.81 122.8 138.82 123.23 139.02C123.66 139.22 123.95 139.6 124.09 140.15C124.2 140.54 124.18 140.91 124.05 141.24C123.91 141.57 123.67 141.85 123.32 142.06C123.69 142.04 124.01 142.22 124.27 142.59L125.5 144.29ZM122.13 141.65C122.54 141.54 122.82 141.39 122.97 141.18C123.12 140.98 123.16 140.72 123.08 140.42C123 140.12 122.84 139.92 122.61 139.83C122.38 139.73 122.06 139.74 121.65 139.85L120.31 140.21L120.79 142.01L122.13 141.65Z" fill="#DEDEDE"/>
<path d="M128.52 143.22L126.2 137.53L130 135.98L130.33 136.79L127.53 137.93L128.17 139.5L130.8 138.43L131.13 139.25L128.5 140.32L129.18 141.99L131.98 140.85L132.31 141.66L128.52 143.22Z" fill="#DEDEDE"/>
<path d="M136.1 139.43C135.58 139.42 135.1 139.27 134.66 138.98C134.22 138.68 133.84 138.26 133.53 137.7C133.22 137.15 133.06 136.61 133.03 136.07C133.01 135.54 133.13 135.05 133.4 134.61C133.67 134.17 134.07 133.8 134.59 133.5C134.95 133.3 135.32 133.16 135.7 133.1C136.08 133.03 136.43 133.04 136.76 133.13L136.84 134.01C136.49 133.95 136.17 133.94 135.88 133.99C135.59 134.04 135.31 134.13 135.04 134.29C134.52 134.58 134.22 134.97 134.12 135.47C134.02 135.96 134.15 136.53 134.5 137.15C134.85 137.78 135.27 138.19 135.74 138.37C136.21 138.55 136.71 138.5 137.23 138.2C137.5 138.05 137.73 137.86 137.92 137.64C138.11 137.42 138.27 137.14 138.4 136.81L139.11 137.34C139.01 137.66 138.84 137.96 138.58 138.26C138.32 138.55 138.02 138.8 137.66 139C137.15 139.29 136.63 139.44 136.1 139.43Z" fill="#DEDEDE"/>
<path d="M142.06 136.15L138.53 131.12L139.44 130.48L142.97 135.51L142.06 136.15Z" fill="#DEDEDE"/>
<path d="M141.72 128.82L143.74 127.08C144.24 126.65 144.74 126.43 145.22 126.44C145.71 126.44 146.13 126.65 146.49 127.07C146.85 127.49 146.99 127.94 146.92 128.43C146.85 128.92 146.56 129.37 146.07 129.8L144.89 130.81L146.56 132.75L145.72 133.48L141.72 128.82ZM145.41 129.23C145.7 128.98 145.87 128.73 145.92 128.48C145.97 128.23 145.89 127.99 145.7 127.77C145.5 127.54 145.28 127.43 145.02 127.43C144.77 127.44 144.49 127.57 144.2 127.82L143.12 128.75L144.33 130.16L145.41 129.23Z" fill="#DEDEDE"/>
<path d="M151.57 128.14L147.03 124.01L149.79 120.97L150.44 121.56L148.41 123.79L149.67 124.93L151.58 122.83L152.23 123.42L150.32 125.52L151.65 126.73L153.68 124.5L154.33 125.09L151.57 128.14Z" fill="#DEDEDE"/>
<path d="M156.63 122C156.29 122.26 155.94 122.44 155.58 122.54L155.14 121.76C155.5 121.65 155.81 121.49 156.09 121.29C156.37 121.09 156.61 120.83 156.84 120.52C157.09 120.17 157.22 119.86 157.23 119.59C157.24 119.31 157.14 119.1 156.92 118.94C156.73 118.81 156.53 118.79 156.3 118.89C156.07 118.99 155.77 119.22 155.4 119.55C154.82 120.08 154.32 120.41 153.9 120.54C153.48 120.67 153.07 120.59 152.65 120.3C152.36 120.09 152.15 119.82 152.03 119.5C151.91 119.18 151.9 118.82 151.97 118.44C152.05 118.05 152.22 117.67 152.5 117.29C152.75 116.94 153.04 116.64 153.37 116.4C153.7 116.16 154.03 116.01 154.36 115.94L154.8 116.71C154.13 116.9 153.6 117.27 153.21 117.8C152.98 118.12 152.86 118.43 152.86 118.71C152.86 118.99 152.97 119.22 153.2 119.38C153.4 119.52 153.61 119.54 153.83 119.45C154.05 119.36 154.35 119.14 154.73 118.8C155.13 118.45 155.47 118.19 155.78 118.01C156.08 117.83 156.37 117.73 156.65 117.72C156.93 117.71 157.21 117.8 157.48 117.99C157.78 118.2 157.98 118.47 158.09 118.79C158.2 119.11 158.21 119.46 158.12 119.85C158.03 120.24 157.84 120.63 157.55 121.04C157.28 121.42 156.97 121.74 156.63 122Z" fill="#DEDEDE"/>
<path d="M26.44 92.44H18.98L19.16 91.1801L21.27 90.4301V80L19.12 79.55L19.25 78.14C20.19 77.99 21.3 77.8601 22.57 77.7401C23.84 77.6201 24.9 77.5601 25.73 77.5601C27.85 77.5601 29.45 77.8601 30.55 78.4601C31.64 79.0601 32.19 80.0601 32.19 81.4601C32.19 82.0501 32.04 82.6301 31.73 83.1801C31.43 83.7301 31.02 84.22 30.51 84.63C30 85.05 29.45 85.3601 28.85 85.5601L30.64 88C31.13 88.66 31.53 89.18 31.85 89.55C32.17 89.92 32.52 90.2401 32.91 90.5201C33.3 90.8 33.75 91 34.27 91.14L34.7 91.26L34.43 92.45C33.84 92.64 33.18 92.73 32.43 92.73C31.31 92.73 30.36 92.43 29.59 91.83C28.82 91.23 28.15 90.3701 27.56 89.2701L26.09 86.54H24.62V90.3401L26.58 91.04L26.44 92.44ZM24.61 79.16V84.75H26.69C27.26 84.51 27.72 84.16 28.06 83.72C28.4 83.28 28.58 82.73 28.58 82.07C28.58 81.52 28.46 81.02 28.21 80.57C27.97 80.12 27.61 79.77 27.15 79.51C26.69 79.25 26.14 79.1201 25.52 79.1201C25.29 79.1201 25.09 79.13 24.92 79.14C24.74 79.15 24.64 79.16 24.61 79.16Z" fill="#DEDEDE"/>
<path d="M37.64 78.9799L37.82 77.6699H50.68L50.31 82.0499L48.78 81.8199L48.04 79.2299H43.21V84.3099H46L46.52 82.7799L48.23 82.4599L47.83 87.4899L46.18 87.7599L45.79 85.7599H43.22V90.6399H48.31L49.76 87.9599L51.23 88.1399L50.87 92.4299H37.77L37.89 91.1699L39.85 90.4199V79.6399L37.64 78.9799Z" fill="#DEDEDE"/>
<path d="M58.8599 92.7196C57.7899 92.7196 56.8399 92.5496 55.9899 92.2196C55.1499 91.8896 54.5399 91.4697 54.1799 90.9597L54.45 87.2296L56.1099 87.4796L56.58 89.6996C56.82 90.0496 57.1699 90.3297 57.6499 90.5597C58.1199 90.7897 58.62 90.8997 59.14 90.8997C59.51 90.8997 59.86 90.8297 60.2 90.6797C60.53 90.5297 60.7999 90.3197 60.9999 90.0497C61.1999 89.7697 61.2999 89.4396 61.2999 89.0696C61.2999 88.7096 61.1799 88.3796 60.9399 88.0996C60.6999 87.8196 60.3999 87.5696 60.0399 87.3596C59.6799 87.1496 59.1799 86.8997 58.5499 86.5897C57.6599 86.1597 56.9299 85.7797 56.3799 85.4297C55.8299 85.0797 55.3599 84.6196 54.9599 84.0396C54.5599 83.4596 54.3599 82.7496 54.3599 81.9196C54.3599 80.9596 54.6199 80.1296 55.1499 79.4496C55.6799 78.7696 56.36 78.2496 57.2 77.9096C58.04 77.5696 58.9299 77.3896 59.8799 77.3896C60.5399 77.3896 61.2499 77.4997 61.9899 77.7097C62.7299 77.9197 63.2899 78.1997 63.6599 78.5297C63.6599 78.6097 63.6199 79.1697 63.5299 80.2097C63.4399 81.2497 63.3799 81.9696 63.3499 82.3496L61.7399 82.0897L61.3599 80.1197C61.1699 79.8097 60.8599 79.5397 60.4199 79.3097C59.9799 79.0797 59.5399 78.9597 59.0899 78.9597C58.5799 78.9597 58.1599 79.1097 57.8499 79.3997C57.5399 79.6997 57.3799 80.1196 57.3799 80.6596C57.3799 81.0496 57.5099 81.3896 57.7699 81.6996C58.0299 81.9996 58.3599 82.2697 58.7399 82.4897C59.1299 82.7197 59.6699 82.9897 60.3699 83.3097C61.2999 83.7497 62.06 84.1597 62.64 84.5197C63.22 84.8797 63.7099 85.3596 64.1299 85.9396C64.5499 86.5296 64.7499 87.2297 64.7499 88.0497C64.7499 89.0597 64.4499 89.9197 63.8399 90.6197C63.2299 91.3197 62.4699 91.8396 61.5599 92.1896C60.6399 92.5496 59.7499 92.7196 58.8599 92.7196Z" fill="#DEDEDE"/>
<path d="M67.64 77.6797H81.72L81.33 82.3397L79.68 82.0697L79.07 79.2497H76.18V90.5297L78.47 91.0597L78.29 92.4397H70.72L70.84 91.1697L72.89 90.4797V79.2397H70.08L69.25 82.3697L67.7 82.1397L67.64 77.6797Z" fill="#DEDEDE"/>
<path d="M84.62 92.4399L84.79 91.1799L86.62 90.2399L91.53 77.9499L94.47 77.3799L99.1 90.2899L100.8 91.1099L100.67 92.4499H93.3L93.47 91.1899L95.48 90.2499L94.6 87.7799H89.8L88.92 90.2699L91.14 91.0799L90.99 92.4299H84.62V92.4399ZM90.43 85.9299H94L92.27 80.7599L90.43 85.9299Z" fill="#DEDEDE"/>
<path d="M105.94 79.7097L103.72 79.0197L103.97 77.6797H111.46L111.28 79.0197L109.29 79.6497V86.1997C109.29 87.6397 109.63 88.7097 110.31 89.3997C110.99 90.0897 111.92 90.4397 113.11 90.4397C114.2 90.4397 115.05 90.1097 115.66 89.4397C116.27 88.7797 116.57 87.7597 116.57 86.3897L116.58 79.7097L114.46 79.0197L114.63 77.6797H120.94L120.77 79.0197L118.8 79.6497L118.75 86.0297C118.73 88.3097 118.18 89.9997 117.12 91.0997C116.06 92.1997 114.46 92.7497 112.33 92.7497C111.18 92.7497 110.15 92.6097 109.23 92.3297C108.31 92.0497 107.53 91.4797 106.89 90.5997C106.25 89.7197 105.93 88.4497 105.93 86.7797V79.7097H105.94Z" fill="#DEDEDE"/>
<path d="M131.27 92.44H123.81L123.99 91.1801L126.1 90.4301V80L123.95 79.55L124.08 78.14C125.02 77.99 126.13 77.8601 127.4 77.7401C128.67 77.6201 129.73 77.5601 130.56 77.5601C132.68 77.5601 134.28 77.8601 135.38 78.4601C136.47 79.0601 137.02 80.0601 137.02 81.4601C137.02 82.0501 136.87 82.6301 136.56 83.1801C136.26 83.7301 135.85 84.22 135.34 84.63C134.83 85.05 134.28 85.3601 133.68 85.5601L135.47 88C135.96 88.66 136.36 89.18 136.68 89.55C137 89.92 137.35 90.2401 137.74 90.5201C138.13 90.8 138.58 91 139.1 91.14L139.53 91.26L139.26 92.45C138.67 92.64 138.01 92.73 137.26 92.73C136.14 92.73 135.19 92.43 134.42 91.83C133.65 91.23 132.98 90.3701 132.39 89.2701L130.92 86.54H129.45V90.3401L131.41 91.04L131.27 92.44ZM129.44 79.16V84.75H131.52C132.09 84.51 132.55 84.16 132.89 83.72C133.23 83.28 133.41 82.73 133.41 82.07C133.41 81.52 133.29 81.02 133.04 80.57C132.8 80.12 132.44 79.77 131.98 79.51C131.52 79.25 130.97 79.1201 130.35 79.1201C130.12 79.1201 129.92 79.13 129.75 79.14C129.57 79.15 129.47 79.16 129.44 79.16Z" fill="#DEDEDE"/>
<path d="M142.46 92.4399L142.63 91.1799L144.46 90.2399L149.37 77.9499L152.31 77.3799L156.94 90.2899L158.64 91.1099L158.51 92.4499H151.15L151.32 91.1899L153.32 90.2499L152.44 87.7799H147.64L146.76 90.2699L148.98 91.0799L148.83 92.4299H142.46V92.4399ZM148.28 85.9299H151.85L150.12 80.7599L148.28 85.9299Z" fill="#DEDEDE"/>
<path d="M161.69 79.0499L161.84 77.6699H166.53L173.49 87.6599V79.6999L171.28 79.0099L171.49 77.6699H177.73L177.49 79.0099L175.51 79.6399V92.3299L172.92 92.7799L165.94 83.0499V90.4999L168.09 91.0699L167.95 92.4199H161.69L161.81 91.1599L163.8 90.4099V79.8399L161.69 79.0499Z" fill="#DEDEDE"/>
<path d="M180.61 77.6797H194.69L194.3 82.3397L192.65 82.0697L192.04 79.2497H189.15V90.5297L191.44 91.0597L191.26 92.4397H183.69L183.81 91.1697L185.86 90.4797V79.2397H183.05L182.22 82.3697L180.67 82.1397L180.61 77.6797Z" fill="#DEDEDE"/>
</svg>
